<svg width="140" height="50" viewBox="0 0 140 50" fill="none" xmlns="http://www.w3.org/2000/svg">
<path d="M2.66437 16.3155C1.77842 15.6134 1.06329 14.7353 0.608171 13.6547C-0.811606 10.2838 0.319717 5.88582 3.32129 3.47087C7.80874 -0.13946 14.829 0.233586 20.4441 0.195493C26.6222 0.153575 32.8003 0.117027 38.9785 0.0849781C53.6178 0.00814241 68.2574 -0.00486583 82.8969 0.00136244C90.2989 0.00451335 97.701 0.0126665 105.103 0.0199369C111.833 0.0265575 118.266 -0.127555 124.834 1.34189C130.188 2.83647 135.328 6.08523 137.766 10.7143C140.616 16.125 139.776 22.6519 139.871 28.4494C139.967 34.305 140.774 42.8587 136.738 47.9039C135.947 48.892 134.808 49.7087 133.473 49.9349C132.14 50.161 130.749 49.7754 129.599 49.13C127.986 48.2247 126.639 46.8752 125.482 45.5362C122.646 42.2552 119.381 39.9769 114.774 38.9356C106.61 37.0905 98.338 42.2491 90.2367 39.6428C83.9177 37.6098 81.6762 31.4821 75.8813 28.8957C72.3396 27.315 68.3714 26.9512 64.5482 27.8845C59.2797 29.1708 55.5092 32.3543 49.6807 32.1633C45.4643 32.0251 41.3223 30.4951 38.2246 27.9314C35.8447 25.9619 34.1013 23.4146 31.5559 21.6C28.6998 19.5639 24.7812 18.4577 21.1688 18.2689C17.628 18.0838 14.093 18.7662 10.5471 18.6944C7.74572 18.6378 4.7374 17.9583 2.66437 16.3155Z" fill="#563A2B"/>
</svg>
