<svg width="151" height="69" viewBox="0 0 151 69" fill="none" xmlns="http://www.w3.org/2000/svg">
<path d="M1.48952 11.0407C1.565 10.8258 1.64421 10.6133 1.72717 10.4035C3.581 5.71226 8.26894 2.42052 13.2682 1.44403C18.1764 0.485302 23.7404 1.08549 28.7839 1.02015C32.8298 0.967736 36.8756 0.918177 40.9215 0.871687C57.6975 0.678933 74.474 0.536396 91.2505 0.401533C99.5524 0.334651 107.854 0.26996 116.156 0.201762C123.848 0.138607 131.979 -0.604342 139.527 1.22891C142.107 1.75016 144.639 2.79616 146.509 4.60112C148.553 6.57516 149.661 9.31845 150.112 12.0846C150.717 15.7936 150.442 19.7057 150.582 23.4489C150.716 27.0348 150.827 30.6212 150.898 34.2088C151.042 41.5073 151.101 48.8349 150.607 56.1229C150.292 60.7606 146.448 64.6539 141.663 65.3514C135.67 66.2248 130.437 60.849 125.048 59.0039C114.38 55.3512 105.565 65.3203 94.7887 63.9429C89.5505 63.2734 83.1317 59.3192 78.165 62.8673C74.8212 65.2558 72.9951 68.0517 68.6181 68.819C63.9986 69.6289 60.503 67.5961 56.8825 65.2023C52.1717 62.088 46.6172 60.6319 41.0183 59.9688C36.0872 59.3848 30.2038 59.2037 25.6309 61.3766C20.1146 63.998 15.6992 66.3288 9.5575 63.6092C4.39339 61.3224 0.895196 56.3185 0.63599 50.8091C0.319573 44.0816 0.102394 37.3461 0.104594 30.6111C0.106355 24.5303 -0.569387 16.903 1.48952 11.0407Z" fill="#4B2406"/>
</svg>
