<svg width="141" height="68" viewBox="0 0 141 68" fill="none" xmlns="http://www.w3.org/2000/svg">
<g clip-path="url(#clip0_1339_182)">
<path d="M4.98143 21.2249C5.02667 21.1826 4.46051 20.5325 4.41996 20.4739C3.95786 19.8065 3.55944 19.1184 3.22031 18.4182C2.22139 16.3559 1.71949 14.1393 2.15559 11.9763C2.67575 9.3963 4.66768 7.19486 7.5109 5.48154C8.61564 4.81581 9.69214 4.21712 11.0717 3.81353C16.2172 2.30816 21.7577 3.88742 25.9255 6.04299C25.9255 6.04299 35.52 -0.520029 48.2737 5.72669C48.2737 5.72669 57.5171 -0.203747 69.6858 5.33133C69.6858 5.33133 79.8653 -0.440959 91.6829 5.33133C91.6829 5.33133 101.16 -0.5991 113.797 5.17316C113.825 5.18617 115.218 4.42328 115.313 4.37911C116.588 3.78659 117.974 3.29409 119.432 2.94192C123.821 1.88157 128.413 2.38925 132.103 4.32093C139.374 8.12678 140.842 15.0229 135.209 19.9597C135.209 19.9597 141.878 27.9461 135.443 35.2207C135.443 35.2207 143.282 41.7837 135.326 49.5328C135.233 49.6238 136.352 51.0201 136.433 51.1588C137.214 52.4911 137.778 53.8883 138.05 55.3102C138.773 59.081 137.11 62.9728 132.613 65.4105C126.825 68.5474 119.354 67.9187 113.329 65.4264C113.329 65.4264 103.032 70.8824 91.0979 65.5055C91.0979 65.5055 80.5673 70.8033 68.9837 65.5845C68.9837 65.5845 59.8573 70.408 48.1567 66.059C48.1567 66.059 35.9881 70.9614 26.1596 65.1892C26.1469 65.1817 24.3005 66.0316 24.1825 66.0778C22.5674 66.7094 20.8215 67.2053 19.0029 67.4943C13.6673 68.3422 8.66008 66.9889 5.09917 64.235C-0.0365468 60.2632 0.545517 53.9612 5.33246 50.0073C5.33246 50.0073 -4.14502 44.235 4.74743 34.9835C4.74743 34.9835 -3.09196 28.7368 4.98143 21.2249Z" fill="#C7A17B"/>
<path d="M20.6183 15.9918C20.9317 15.9918 21.1858 15.7549 21.1858 15.4627C21.1858 15.1705 20.9317 14.9336 20.6183 14.9336C20.3049 14.9336 20.0508 15.1705 20.0508 15.4627C20.0508 15.7549 20.3049 15.9918 20.6183 15.9918Z" fill="#B58452"/>
<path d="M18.2609 24.4489C18.5743 24.4489 18.8284 24.212 18.8284 23.9197C18.8284 23.6275 18.5743 23.3906 18.2609 23.3906C17.9474 23.3906 17.6934 23.6275 17.6934 23.9197C17.6934 24.212 17.9474 24.4489 18.2609 24.4489Z" fill="#B58452"/>
<path d="M17.1163 34.7028C17.4298 34.7028 17.6838 34.4659 17.6838 34.1737C17.6838 33.8814 17.4298 33.6445 17.1163 33.6445C16.8029 33.6445 16.5488 33.8814 16.5488 34.1737C16.5488 34.4659 16.8029 34.7028 17.1163 34.7028Z" fill="#B58452"/>
<path d="M16.9738 44.9684C17.2872 44.9684 17.5413 44.7315 17.5413 44.4393C17.5413 44.1471 17.2872 43.9102 16.9738 43.9102C16.6603 43.9102 16.4062 44.1471 16.4062 44.4393C16.4062 44.7315 16.6603 44.9684 16.9738 44.9684Z" fill="#B58452"/>
<path d="M126.392 24.7145C126.705 24.7145 126.959 24.4776 126.959 24.1854C126.959 23.8931 126.705 23.6562 126.392 23.6562C126.078 23.6562 125.824 23.8931 125.824 24.1854C125.824 24.4776 126.078 24.7145 126.392 24.7145Z" fill="#B58452"/>
<path d="M126.726 36.2614C127.039 36.2614 127.293 36.0245 127.293 35.7322C127.293 35.44 127.039 35.2031 126.726 35.2031C126.412 35.2031 126.158 35.44 126.158 35.7322C126.158 36.0245 126.412 36.2614 126.726 36.2614Z" fill="#B58452"/>
<path d="M126.253 46.7418C126.566 46.7418 126.821 46.5049 126.821 46.2127C126.821 45.9205 126.566 45.6836 126.253 45.6836C125.94 45.6836 125.686 45.9205 125.686 46.2127C125.686 46.5049 125.94 46.7418 126.253 46.7418Z" fill="#B58452"/>
<path d="M18.5734 55.3786C18.8868 55.3786 19.1409 55.1417 19.1409 54.8494C19.1409 54.5572 18.8868 54.3203 18.5734 54.3203C18.2599 54.3203 18.0059 54.5572 18.0059 54.8494C18.0059 55.1417 18.2599 55.3786 18.5734 55.3786Z" fill="#B58452"/>
<path d="M36.4796 13.0582C36.793 13.0582 37.0471 12.8213 37.0471 12.5291C37.0471 12.2369 36.793 12 36.4796 12C36.1662 12 35.9121 12.2369 35.9121 12.5291C35.9121 12.8213 36.1662 13.0582 36.4796 13.0582Z" fill="#B58452"/>
<path d="M36.4796 56.3786C36.793 56.3786 37.0471 56.1417 37.0471 55.8494C37.0471 55.5572 36.793 55.3203 36.4796 55.3203C36.1662 55.3203 35.9121 55.5572 35.9121 55.8494C35.9121 56.1417 36.1662 56.3786 36.4796 56.3786Z" fill="#B58452"/>
<path d="M54.0577 12.7887C54.3712 12.7887 54.6253 12.5518 54.6253 12.2596C54.6253 11.9674 54.3712 11.7305 54.0577 11.7305C53.7443 11.7305 53.4902 11.9674 53.4902 12.2596C53.4902 12.5518 53.7443 12.7887 54.0577 12.7887Z" fill="#B58452"/>
<path d="M54.0577 56.9137C54.3712 56.9137 54.6253 56.6768 54.6253 56.3846C54.6253 56.0924 54.3712 55.8555 54.0577 55.8555C53.7443 55.8555 53.4902 56.0924 53.4902 56.3846C53.4902 56.6768 53.7443 56.9137 54.0577 56.9137Z" fill="#B58452"/>
<path d="M70.7784 13.0582C71.0919 13.0582 71.346 12.8213 71.346 12.5291C71.346 12.2369 71.0919 12 70.7784 12C70.465 12 70.2109 12.2369 70.2109 12.5291C70.2109 12.8213 70.465 13.0582 70.7784 13.0582Z" fill="#B58452"/>
<path d="M70.7784 57.2653C71.0919 57.2653 71.346 57.0284 71.346 56.7362C71.346 56.4439 71.0919 56.207 70.7784 56.207C70.465 56.207 70.2109 56.4439 70.2109 56.7362C70.2109 57.0284 70.465 57.2653 70.7784 57.2653Z" fill="#B58452"/>
<path d="M88.3546 13.0582C88.668 13.0582 88.9221 12.8213 88.9221 12.5291C88.9221 12.2369 88.668 12 88.3546 12C88.0412 12 87.7871 12.2369 87.7871 12.5291C87.7871 12.8213 88.0412 13.0582 88.3546 13.0582Z" fill="#B58452"/>
<path d="M88.3546 57.4489C88.668 57.4489 88.9221 57.212 88.9221 56.9197C88.9221 56.6275 88.668 56.3906 88.3546 56.3906C88.0412 56.3906 87.7871 56.6275 87.7871 56.9197C87.7871 57.212 88.0412 57.4489 88.3546 57.4489Z" fill="#B58452"/>
<path d="M106.933 13.0582C107.246 13.0582 107.5 12.8213 107.5 12.5291C107.5 12.2369 107.246 12 106.933 12C106.619 12 106.365 12.2369 106.365 12.5291C106.365 12.8213 106.619 13.0582 106.933 13.0582Z" fill="#B58452"/>
<path d="M106.933 57.445C107.246 57.445 107.5 57.2081 107.5 56.9158C107.5 56.6236 107.246 56.3867 106.933 56.3867C106.619 56.3867 106.365 56.6236 106.365 56.9158C106.365 57.2081 106.619 57.445 106.933 57.445Z" fill="#B58452"/>
<path d="M122.843 16.5621C123.156 16.5621 123.41 16.3253 123.41 16.033C123.41 15.7408 123.156 15.5039 122.843 15.5039C122.529 15.5039 122.275 15.7408 122.275 16.033C122.275 16.3253 122.529 16.5621 122.843 16.5621Z" fill="#B58452"/>
<path d="M122.843 56.027C123.156 56.027 123.41 55.7901 123.41 55.4979C123.41 55.2056 123.156 54.9688 122.843 54.9688C122.529 54.9688 122.275 55.2056 122.275 55.4979C122.275 55.7901 122.529 56.027 122.843 56.027Z" fill="#B58452"/>
<path d="M3.66437 16.3155C2.77842 15.6134 2.06329 14.7353 1.60817 13.6547C0.188394 10.2838 1.31972 5.88582 4.32129 3.47087C8.80874 -0.13946 15.829 0.233586 21.4441 0.195493C27.6222 0.153575 33.8003 0.117027 39.9785 0.0849781C54.6178 0.00814241 69.2574 -0.00486583 83.8969 0.00136244C91.2989 0.00451335 98.701 0.0126665 106.103 0.0199369C112.833 0.0265575 119.266 -0.127555 125.834 1.34189C131.188 2.83647 136.328 6.08523 138.766 10.7143C141.616 16.125 140.776 22.6519 140.871 28.4494C140.967 34.305 141.774 42.8587 137.738 47.9039C136.947 48.892 135.808 49.7087 134.473 49.9349C133.14 50.161 131.749 49.7754 130.599 49.13C128.986 48.2247 127.639 46.8752 126.482 45.5362C123.646 42.2552 120.381 39.9769 115.774 38.9356C107.61 37.0905 99.338 42.2491 91.2367 39.6428C84.9177 37.6098 82.6762 31.4821 76.8813 28.8957C73.3396 27.315 69.3714 26.9512 65.5482 27.8845C60.2797 29.1708 56.5092 32.3543 50.6807 32.1633C46.4643 32.0251 42.3223 30.4951 39.2246 27.9314C36.8447 25.9619 35.1013 23.4146 32.5559 21.6C29.6998 19.5639 25.7812 18.4577 22.1688 18.2689C18.628 18.0838 15.093 18.7662 11.5471 18.6944C8.74572 18.6378 5.7374 17.9583 3.66437 16.3155Z" fill="#563A2B"/>
</g>
<defs>
<clipPath id="clip0_1339_182">
<rect width="141" height="68" fill="white"/>
</clipPath>
</defs>
</svg>
