<svg width="141" height="65" viewBox="0 0 141 65" fill="none" xmlns="http://www.w3.org/2000/svg">
<path d="M1.39088 10.3449C1.46135 10.1435 1.53532 9.94443 1.61278 9.7478C3.34385 5.35224 7.72133 2.26797 12.3896 1.35302C16.9727 0.454715 22.1682 1.01708 26.8777 0.95585C30.6556 0.906743 34.4335 0.860308 38.2115 0.816749C53.8765 0.636143 69.542 0.502589 85.2074 0.376226C92.9595 0.313559 100.712 0.252946 108.464 0.189046C115.646 0.129871 123.239 -0.566253 130.287 1.15146C132.696 1.63985 135.06 2.61993 136.806 4.31113C138.715 6.16075 139.749 8.73115 140.171 11.3229C140.736 14.7982 140.479 18.4637 140.609 21.9711C140.735 25.3309 140.839 28.6913 140.905 32.0527C141.039 38.8913 141.095 45.757 140.633 52.5857C140.339 56.9311 136.749 60.579 132.281 61.2326C126.685 62.051 121.799 57.0139 116.767 55.2851C106.805 51.8627 98.5737 61.2034 88.5113 59.9129C83.62 59.2856 77.6263 55.5806 72.9885 58.9051C69.8662 61.143 68.161 63.7627 64.0739 64.4817C59.7603 65.2404 56.4962 63.3358 53.1155 61.0929C48.7166 58.1748 43.53 56.8105 38.3019 56.1892C33.6973 55.642 28.2036 55.4723 23.9335 57.5083C18.7825 59.9645 14.6596 62.1484 8.92455 59.6002C4.10243 57.4575 0.835912 52.769 0.593871 47.6068C0.298409 41.3033 0.0956128 34.9924 0.0976675 28.6818C0.0993112 22.9842 -0.531679 15.8377 1.39088 10.3449Z" fill="#4B2406"/>
</svg>
