<svg width="141" height="68" viewBox="0 0 141 68" fill="none" xmlns="http://www.w3.org/2000/svg">
<g clip-path="url(#clip0_1184_137)">
<path d="M4.12931 19.5144C4.17555 19.4705 3.59688 18.7967 3.55543 18.736C3.08312 18.0442 2.6759 17.3309 2.32927 16.6051C1.30829 14.4674 0.795293 12.1699 1.24103 9.9278C1.77269 7.25355 3.80863 4.97167 6.71469 3.19574C7.84385 2.5057 8.94413 1.88512 10.3542 1.46677C15.6134 -0.0936021 21.2763 1.54336 25.5362 3.77769C25.5362 3.77769 35.3428 -3.02513 48.3782 3.44985C48.3782 3.44985 57.826 -2.69728 70.2635 3.04004C70.2635 3.04004 80.668 -2.94316 92.7467 3.04004C92.7467 3.04004 102.434 -3.10708 115.35 2.8761C115.379 2.88958 116.801 2.09881 116.899 2.05304C118.202 1.43886 119.618 0.928379 121.109 0.563333C125.596 -0.53575 130.288 -0.00952195 134.06 1.99273C141.492 5.93765 142.992 13.0858 137.235 18.203C137.235 18.203 144.052 26.4811 137.474 34.0216C137.474 34.0216 145.487 40.8244 137.354 48.8566C137.259 48.951 138.403 50.3983 138.486 50.5421C139.284 51.923 139.86 53.3713 140.139 54.8452C140.877 58.7537 139.178 62.7878 134.581 65.3145C128.666 68.566 121.03 67.9144 114.871 65.331C114.871 65.331 104.347 70.9863 92.1488 65.4129C92.1488 65.4129 81.3855 70.9044 69.546 65.4949C69.546 65.4949 60.2178 70.4945 48.2587 65.9867C48.2587 65.9867 35.8212 71.0683 25.7755 65.0851C25.7625 65.0774 23.8753 65.9583 23.7546 66.0062C22.1039 66.6608 20.3194 67.1748 18.4606 67.4744C13.0071 68.3533 7.88926 66.9505 4.24965 64.096C-0.99956 59.9791 -0.404629 53.4468 4.4881 49.3484C4.4881 49.3484 -5.19883 43.3652 3.89014 33.7757C3.89014 33.7757 -4.1225 27.3008 4.12931 19.5144Z" fill="#C7A17B"/>
<path d="M20.1132 14.0871C20.4336 14.0871 20.6933 13.8416 20.6933 13.5387C20.6933 13.2358 20.4336 12.9902 20.1132 12.9902C19.7929 12.9902 19.5332 13.2358 19.5332 13.5387C19.5332 13.8416 19.7929 14.0871 20.1132 14.0871Z" fill="#B58452"/>
<path d="M16.58 25.0949C16.9004 25.0949 17.1601 24.8494 17.1601 24.5465C17.1601 24.2436 16.9004 23.998 16.58 23.998C16.2597 23.998 16 24.2436 16 24.5465C16 24.8494 16.2597 25.0949 16.58 25.0949Z" fill="#B58452"/>
<path d="M16.58 40.0949C16.9004 40.0949 17.1601 39.8494 17.1601 39.5465C17.1601 39.2436 16.9004 38.998 16.58 38.998C16.2597 38.998 16 39.2436 16 39.5465C16 39.8494 16.2597 40.0949 16.58 40.0949Z" fill="#B58452"/>
<path d="M128.58 26.0969C128.9 26.0969 129.16 25.8513 129.16 25.5484C129.16 25.2455 128.9 25 128.58 25C128.26 25 128 25.2455 128 25.5484C128 25.8513 128.26 26.0969 128.58 26.0969Z" fill="#B58452"/>
<path d="M128.58 42.0949C128.9 42.0949 129.16 41.8494 129.16 41.5465C129.16 41.2436 128.9 40.998 128.58 40.998C128.26 40.998 128 41.2436 128 41.5465C128 41.8494 128.26 42.0949 128.58 42.0949Z" fill="#B58452"/>
<path d="M18.0234 54.9133C18.3438 54.9133 18.6034 54.6678 18.6034 54.3649C18.6034 54.062 18.3438 53.8164 18.0234 53.8164C17.7031 53.8164 17.4434 54.062 17.4434 54.3649C17.4434 54.6678 17.7031 54.9133 18.0234 54.9133Z" fill="#B58452"/>
<path d="M36.3261 11.0481C36.6465 11.0481 36.9062 10.8025 36.9062 10.4996C36.9062 10.1967 36.6465 9.95117 36.3261 9.95117C36.0058 9.95117 35.7461 10.1967 35.7461 10.4996C35.7461 10.8025 36.0058 11.0481 36.3261 11.0481Z" fill="#B58452"/>
<path d="M36.3261 55.9524C36.6465 55.9524 36.9062 55.7068 36.9062 55.4039C36.9062 55.101 36.6465 54.8555 36.3261 54.8555C36.0058 54.8555 35.7461 55.101 35.7461 55.4039C35.7461 55.7068 36.0058 55.9524 36.3261 55.9524Z" fill="#B58452"/>
<path d="M54.2929 10.7688C54.6133 10.7688 54.873 10.5232 54.873 10.2203C54.873 9.91742 54.6133 9.67188 54.2929 9.67188C53.9726 9.67188 53.7129 9.91742 53.7129 10.2203C53.7129 10.5232 53.9726 10.7688 54.2929 10.7688Z" fill="#B58452"/>
<path d="M54.2929 56.5051C54.6133 56.5051 54.873 56.2596 54.873 55.9567C54.873 55.6538 54.6133 55.4082 54.2929 55.4082C53.9726 55.4082 53.7129 55.6538 53.7129 55.9567C53.7129 56.2596 53.9726 56.5051 54.2929 56.5051Z" fill="#B58452"/>
<path d="M71.3808 11.0481C71.7012 11.0481 71.9609 10.8025 71.9609 10.4996C71.9609 10.1967 71.7012 9.95117 71.3808 9.95117C71.0605 9.95117 70.8008 10.1967 70.8008 10.4996C70.8008 10.8025 71.0605 11.0481 71.3808 11.0481Z" fill="#B58452"/>
<path d="M71.3808 56.8684C71.7012 56.8684 71.9609 56.6228 71.9609 56.3199C71.9609 56.017 71.7012 55.7715 71.3808 55.7715C71.0605 55.7715 70.8008 56.017 70.8008 56.3199C70.8008 56.6228 71.0605 56.8684 71.3808 56.8684Z" fill="#B58452"/>
<path d="M89.3476 11.0481C89.668 11.0481 89.9277 10.8025 89.9277 10.4996C89.9277 10.1967 89.668 9.95117 89.3476 9.95117C89.0273 9.95117 88.7676 10.1967 88.7676 10.4996C88.7676 10.8025 89.0273 11.0481 89.3476 11.0481Z" fill="#B58452"/>
<path d="M89.3476 57.0617C89.668 57.0617 89.9277 56.8162 89.9277 56.5133C89.9277 56.2104 89.668 55.9648 89.3476 55.9648C89.0273 55.9648 88.7676 56.2104 88.7676 56.5133C88.7676 56.8162 89.0273 57.0617 89.3476 57.0617Z" fill="#B58452"/>
<path d="M108.336 11.0481C108.656 11.0481 108.916 10.8025 108.916 10.4996C108.916 10.1967 108.656 9.95117 108.336 9.95117C108.016 9.95117 107.756 10.1967 107.756 10.4996C107.756 10.8025 108.016 11.0481 108.336 11.0481Z" fill="#B58452"/>
<path d="M108.336 57.0578C108.656 57.0578 108.916 56.8123 108.916 56.5094C108.916 56.2065 108.656 55.9609 108.336 55.9609C108.016 55.9609 107.756 56.2065 107.756 56.5094C107.756 56.8123 108.016 57.0578 108.336 57.0578Z" fill="#B58452"/>
<path d="M124.598 14.6809C124.918 14.6809 125.178 14.4353 125.178 14.1324C125.178 13.8295 124.918 13.584 124.598 13.584C124.277 13.584 124.018 13.8295 124.018 14.1324C124.018 14.4353 124.277 14.6809 124.598 14.6809Z" fill="#B58452"/>
<path d="M124.598 55.5871C124.918 55.5871 125.178 55.3416 125.178 55.0387C125.178 54.7358 124.918 54.4902 124.598 54.4902C124.277 54.4902 124.018 54.7358 124.018 55.0387C124.018 55.3416 124.277 55.5871 124.598 55.5871Z" fill="#B58452"/>
</g>
<defs>
<clipPath id="clip0_1184_137">
<rect width="141" height="68" fill="white"/>
</clipPath>
</defs>
</svg>
