<svg width="24" height="24" viewBox="0 0 24 24" fill="none" xmlns="http://www.w3.org/2000/svg">
<path fill-rule="evenodd" clip-rule="evenodd" d="M12 24C18.6274 24 24 18.6274 24 12C24 5.37258 18.6274 0 12 0C5.37258 0 0 5.37258 0 12C0 18.6274 5.37258 24 12 24ZM22.2 12C22.2 12.9347 22.0742 13.8401 21.8388 14.7H17.2627C17.3526 13.8322 17.4 12.9284 17.4 12C17.4 11.0716 17.3526 10.1678 17.2627 9.3H21.8388C22.0742 10.1599 22.2 11.0653 22.2 12ZM17.0075 7.5H21.1562C19.9536 5.0577 17.8027 3.16642 15.184 2.30676C15.9905 3.6172 16.6273 5.41267 17.0075 7.5ZM8.81609 2.30676C6.19734 3.16642 4.04635 5.0577 2.84377 7.5H6.99252C7.37274 5.41267 8.00958 3.6172 8.81609 2.30676ZM6.73723 9.3H2.16118C1.92572 10.1599 1.8 11.0653 1.8 12C1.8 12.9347 1.92572 13.8401 2.16118 14.7H6.73723C6.64745 13.8322 6.6 12.9284 6.6 12C6.6 11.0716 6.64745 10.1678 6.73723 9.3ZM6.99252 16.5H2.84377C4.04636 18.9424 6.19734 20.8336 8.81609 21.6932C8.00958 20.3828 7.37274 18.5873 6.99252 16.5ZM15.184 21.6932C17.8027 20.8336 19.9536 18.9424 21.1562 16.5H17.0075C16.6273 18.5873 15.9905 20.3828 15.184 21.6932ZM15.6 12C15.6 12.9389 15.5482 13.8431 15.4524 14.7H8.54756C8.45186 13.8431 8.4 12.9389 8.4 12C8.4 11.0611 8.45186 10.1569 8.54756 9.3H15.4524C15.5482 10.1569 15.6 11.0611 15.6 12ZM15.1751 7.5C14.9276 6.25757 14.5842 5.15833 14.1769 4.25338C13.2504 2.19448 12.3416 1.8 12 1.8C11.6584 1.8 10.7496 2.19448 9.82308 4.25338C9.41585 5.15833 9.07232 6.25757 8.82487 7.5H15.1751ZM8.82487 16.5C9.07232 17.7425 9.41585 18.8417 9.82308 19.7466C10.7496 21.8056 11.6584 22.2 12 22.2C12.3416 22.2 13.2504 21.8056 14.1769 19.7466C14.5842 18.8417 14.9276 17.7425 15.1751 16.5H8.82487Z" fill="#AD7252"/>
</svg>
