<svg width="34" height="18" viewBox="0 0 34 18" fill="none" xmlns="http://www.w3.org/2000/svg">
<path d="M0.0212429 6.18136C-0.0323797 4.80306 -0.0533207 3.35178 0.845751 2.2184C1.80964 1.00328 3.6802 0.678573 5.14589 0.772384C10.8318 0.549142 16.5158 0.227272 22.2035 0.0641628C24.007 0.0126741 25.7898 -0.171289 27.5146 0.469557C29.0273 1.03154 30.3599 2.13754 31.4834 3.25758C32.868 4.63794 33.3815 5.6746 33.7197 7.49313C34.2036 10.0945 34.0544 13.0543 33.3229 15.5762C32.7341 17.6063 30.3425 17.5015 28.4843 17.5817C23.465 17.7983 18.3538 17.8489 13.2814 17.9548C11.346 17.9952 9.40903 18.0318 7.47457 17.9557C5.81878 17.8906 4.19558 17.1779 2.786 16.2806C1.42734 15.4157 0.578353 14.2188 0.363204 12.6166C0.10305 10.6793 0.1083 8.72148 0.0438208 6.77178C0.0373861 6.57727 0.0289758 6.38007 0.0212429 6.18136Z" fill="#FEE5B1"/>
<path d="M3.26562 3.75586L6.55899 6.3975L30.245 5.40668" stroke="#C7A17B" stroke-linecap="round" stroke-linejoin="round"/>
<path d="M6.93359 15.369L6.71484 6.44141" stroke="#C7A17B" stroke-linecap="round" stroke-linejoin="round"/>
<path d="M11.9907 12.4676L10.9997 12.513C10.736 12.525 10.6021 12.399 10.5901 12.1353L10.4908 9.96558C10.4787 9.70186 10.6005 9.56415 10.8643 9.55208L11.7593 9.51113C12.4306 9.48041 12.8486 9.68953 12.8729 10.221C12.885 10.4847 12.7396 10.7196 12.4686 10.8361L12.4697 10.8601C12.7491 10.9274 13.0189 11.1353 13.0372 11.5348C13.0633 12.1062 12.682 12.436 11.9907 12.4676ZM11.2166 11.2137L11.2499 11.941L11.8372 11.9141C12.1569 11.8995 12.3812 11.8131 12.368 11.5254C12.3549 11.2377 12.1236 11.1722 11.804 11.1868L11.2166 11.2137ZM12.2019 10.3438C12.1909 10.104 12.0354 10.0311 11.7157 10.0457L11.1643 10.0709L11.1936 10.7102L11.745 10.685C12.0646 10.6704 12.2128 10.5835 12.2019 10.3438ZM14.8821 12.3954C14.1789 12.4276 13.6026 12.0856 13.5705 11.3823L13.4957 9.74802C13.4866 9.54822 13.612 9.40234 13.8158 9.39301C14.0156 9.38387 14.1579 9.51751 14.167 9.7173L14.2396 11.3036C14.2549 11.6393 14.5164 11.8396 14.856 11.824C15.1917 11.8087 15.4377 11.5852 15.4223 11.2495L15.3498 9.66319C15.3406 9.46339 15.4701 9.31733 15.6699 9.30818C15.8697 9.29904 16.0119 9.43268 16.0211 9.63247L16.0958 11.2668C16.1278 11.966 15.5854 12.3632 14.8821 12.3954ZM17.5733 11.8999L17.4794 9.84604L16.836 9.87548C16.6403 9.88443 16.4878 9.7913 16.4787 9.59151C16.4697 9.39572 16.613 9.28906 16.8088 9.2801L18.7588 9.19088C18.9506 9.18211 19.107 9.27506 19.1159 9.47085C19.1251 9.67064 18.9778 9.77748 18.786 9.78626L18.1387 9.81588L18.2327 11.8697C18.2418 12.0695 18.1201 12.2112 17.9204 12.2204C17.7206 12.2295 17.5825 12.0997 17.5733 11.8999ZM20.4492 11.7683L20.3553 9.71446L19.7119 9.7439C19.5161 9.75285 19.3637 9.65972 19.3546 9.45993C19.3456 9.26414 19.4889 9.15748 19.6847 9.14852L21.6347 9.0593C21.8265 9.05053 21.9829 9.14347 21.9918 9.33927C22.001 9.53906 21.8537 9.6459 21.6619 9.65468L21.0146 9.6843L21.1086 11.7381C21.1177 11.9379 20.996 12.0796 20.7963 12.0888C20.5965 12.0979 20.4584 11.9681 20.4492 11.7683ZM24.4103 11.8994L22.9638 11.9656C22.7001 11.9777 22.5662 11.8516 22.5541 11.5879L22.4548 9.41819C22.4428 9.15447 22.5646 9.01675 22.8283 9.00469L24.2269 8.9407C24.4266 8.93156 24.5696 8.99309 24.5788 9.19288C24.5879 9.39267 24.4511 9.467 24.2514 9.47614L23.1365 9.52715L23.1658 10.1665L24.2087 10.1188C24.3965 10.1102 24.532 10.1841 24.5406 10.3719C24.5492 10.5597 24.421 10.6456 24.2332 10.6542L23.1903 10.7019L23.223 11.4172L24.3858 11.364C24.5856 11.3548 24.7284 11.4124 24.7375 11.6122C24.7466 11.8119 24.6101 11.8903 24.4103 11.8994ZM27.6042 9.70714C27.6208 10.0708 27.4738 10.3578 27.2052 10.5262L27.667 11.342C27.7455 11.4825 27.7457 11.6627 27.5781 11.7625C27.4103 11.8582 27.2232 11.7947 27.1363 11.6465L26.5559 10.6881L25.9126 10.7175L25.9491 11.5167C25.9583 11.7165 25.8246 11.8587 25.6249 11.8679C25.4251 11.877 25.283 11.7474 25.2738 11.5476L25.1707 9.29393C25.1585 9.02621 25.2805 8.89249 25.5442 8.88043L26.5512 8.83435C27.1625 8.80638 27.578 9.13574 27.6042 9.70714ZM25.8522 9.39889L25.8883 10.1861L26.4637 10.1597C26.7673 10.1458 26.9578 10.021 26.9449 9.73731C26.9319 9.4536 26.7353 9.35849 26.4276 9.37256L25.8522 9.39889ZM28.1226 11.5774C28.1136 11.3816 28.2661 11.2145 28.4619 11.2055C28.6577 11.1965 28.8249 11.3491 28.8338 11.5449C28.8428 11.7407 28.6903 11.9078 28.4945 11.9168C28.2987 11.9257 28.1315 11.7732 28.1226 11.5774Z" fill="#B58452"/>
</svg>
