<svg width="53" height="29" viewBox="0 0 53 29" fill="none" xmlns="http://www.w3.org/2000/svg">
<path d="M18.623 5.37384C18.6142 5.37476 18.6054 5.37504 18.5965 5.37463C18.5378 5.37193 18.4836 5.33928 18.432 5.30686C18.1889 5.15414 17.9382 4.9979 17.706 4.82372C17.3439 4.5836 16.983 4.31087 16.6033 4.10863C14.8635 3.18178 12.9395 2.67757 11.019 2.78891C6.64205 3.04266 2.2431 6.59477 0.691493 11.3515C-2.21397 20.2587 4.54742 26.0264 11.4545 27.5763C15.9711 28.5897 19.9447 29.0067 24.3458 28.9999C29.1709 28.9924 34.1388 28.9551 38.917 28.1981C43.6712 27.4448 49.4257 25.924 51.8085 20.6258C53.9787 15.8003 53.1379 9.45432 49.6649 5.65016C47.7436 3.54572 45.1864 2.53676 42.5525 2.72326C40.2893 2.88351 38.2057 3.86091 36.2514 5.13206C36.2402 5.13935 36.2277 5.1469 36.2151 5.14384C36.2027 5.14082 36.1939 5.12835 36.1862 5.11669C35.717 4.40632 35.1776 3.82707 34.6252 3.2045C31.0393 -0.837241 26.1348 -0.903376 22.0516 2.15042C21.4162 2.62568 20.8099 3.15231 20.2323 3.71711C19.9405 4.00241 19.656 4.29759 19.3786 4.60147C19.1923 4.80559 19.0079 5.00989 18.835 5.22826C18.7783 5.29992 18.7052 5.36515 18.623 5.37384Z" fill="#A24C3B"/>
</svg>
