<svg width="141" height="68" viewBox="0 0 141 68" fill="none" xmlns="http://www.w3.org/2000/svg">
<path d="M49.5441 12.6007C49.5209 12.6029 49.4974 12.6036 49.4737 12.6026C49.3175 12.5962 49.1734 12.5197 49.0361 12.4437C48.3893 12.0856 47.7224 11.7192 47.1046 11.3108C46.1414 10.7478 45.1811 10.1082 44.1712 9.63402C39.5424 7.46072 34.4239 6.27845 29.3148 6.5395C17.6704 7.1345 5.9675 15.4636 1.83963 26.6173C-5.88999 47.5032 12.0979 61.0275 30.4732 64.6616C42.4893 67.0379 53.0604 68.0158 64.7691 67.9998C77.6055 67.9823 90.8221 67.8948 103.534 66.1196C116.182 64.3534 131.491 60.7874 137.83 48.3639C143.604 37.0491 141.367 22.1688 132.127 13.2486C127.016 8.31411 120.213 5.94826 113.206 6.38558C107.185 6.76134 101.641 9.05317 96.4425 12.0338C96.4127 12.0509 96.3794 12.0686 96.346 12.0614C96.3129 12.0543 96.2895 12.0251 96.269 11.9977C95.0208 10.3321 93.5857 8.97382 92.1162 7.514C82.5762 -1.96319 69.5285 -2.11826 58.6657 5.04236C56.9751 6.15677 55.3622 7.39163 53.8254 8.71599C53.0492 9.38495 52.2922 10.0771 51.5544 10.7897C51.0588 11.2683 50.5682 11.7473 50.1082 12.2594C49.9573 12.4274 49.7628 12.5803 49.5441 12.6007Z" fill="#A24C3B"/>
</svg>
