<svg width="116" height="54" viewBox="0 0 116 54" fill="none" xmlns="http://www.w3.org/2000/svg">
<path d="M2.61944 5.16421L2.99693 4.38449L3.42693 3.62222L4.58566 3.24109L4.97299 2.49919L5.44567 1.77184L6.15141 1.21322L6.69959 0.226943L8.04869 1.21033L8.84635 0.212381L9.8672 0L10.5598 0.872824L11.7678 0.733178L11.4724 2.20534L12.1584 2.62138L12.2372 3.41273L13.9605 3.5204L12.9528 4.69871L13.0512 5.46969L14.0425 6.03412L14.3413 6.78475L15.0437 7.4801L14.2329 8.4053L14.3675 9.1821L13.9638 10.0113L15.3162 10.6921L14.5645 11.5387L14.9518 12.3097L14.5743 13.1156L15.5098 13.8837L14.7581 14.6925L15.7101 15.4839L15.3096 16.2113L15.7462 16.9502L15.326 17.6689L15.7101 18.4079L15.2735 18.5126L15.7856 18.6173L16.3239 17.9016L16.7572 17.0375L18.4542 17.6892L19.137 17.1568L19.695 16.4353L20.3811 15.865L21.0211 15.2686L22.0125 15.3093L22.5048 14.2445L23.5979 14.7158L24.4087 14.3667L25.2884 14.7304L26.2928 13.7732L26.6277 15.3297L28.1376 14.5063L29.1289 15.1609L28.9615 16.2956L29.5491 17.1626L28.8335 17.9133L27.9439 18.4631L29.1322 19.6356L27.9078 19.9964L28.1343 20.971L26.992 21.2474L25.9613 21.6228L26.3355 22.9291L25.7545 23.6273L24.0903 23.4295L24.4448 24.9046L23.25 25.0413L22.8331 25.8938L22.5869 26.3855L22.728 26.816L22.8298 27.7791L23.8966 28.0293L24.1723 28.8526L25.075 29.2425L24.714 30.4645L25.3212 31.0347L26.3848 31.3489L26.4767 32.1694L26.4865 32.9636L27.3301 33.4466L28.5348 34.011L27.2678 34.8926L28.433 35.9342L27.1463 36.484L26.4077 37.0223L25.83 37.6682L25.4525 38.346L24.668 37.8922L23.8408 38.0231L23.181 37.4121L22.1536 37.7089L21.3428 37.4179L20.5485 37.0834L19.7935 36.6877L19.1698 36.1145L18.533 35.5938L17.6369 35.3959L17.4038 34.4125L15.8446 34.9304L15.3326 34.2612L14.5087 33.9208L14.9781 32.3323L13.8522 32.2916L13.0775 31.5904L13.6224 32.8327L12.7755 33.4466L12.1912 34.1187L11.5117 34.718L11.4526 35.649L10.0149 35.6374L9.58163 36.3618L9.18116 37.4209L8.17671 37.7089L7.1296 37.7409L6.26958 37.351L5.3472 37.3016L4.79573 36.612L3.72564 36.4462L3.87992 35.3494L2.16645 35.2795L3.16761 33.9732L2.69493 33.2982L2.65554 32.4894L1.84148 31.8493L1.18826 31.1365L2.07126 30.1793L0.764819 29.5276L1.59202 28.6228L0.439854 27.9042L0.577724 27.0721L0.341383 26.2633L0.213361 25.4457L0.610541 24.6165L0.219932 23.8019L0.810779 22.9814L1.19483 22.1784L0.288862 21.3522L0.498937 20.5434L0 19.7171L1.79882 18.9606L1.81522 18.1605L0.79437 17.3023L1.38522 16.5255L0.70245 15.6701L1.13574 14.8875L1.75286 14.1281L0.800931 13.2204L1.2014 12.4406L2.07126 11.7278L2.2879 10.9452L2.50783 10.1684L2.87219 9.41777L2.87875 8.60605L1.88415 7.56447L3.08884 7.00878L3.70266 6.34543L2.63256 5.17003L2.61944 5.16421Z" fill="#AD7252"/>
<path d="M28.626 23.3666L28.2265 22.5272L28.6259 21.9735L29.6735 21.9963L29.5645 20.8579L30.7034 21.5308L31.0806 20.4668L31.8145 20.9818L32.5616 20.5448L33.0636 21.1237L33.412 21.6559L33.7205 22.1304L34.6693 22.1869L34.9326 22.7576L35.4718 23.2004L35.8129 23.7475L35.6366 24.4511L35.3864 25.1321L36.2772 25.5563L36.3979 26.1608L36.4983 26.7662L36.7098 27.361L36.9171 27.9473L36.4152 28.6838L37.096 29.1524L37.3169 29.7297L37.3517 30.5486L37.9556 31.1092L38.834 31.3937L39.7726 31.3994L40.545 30.9858L41.0261 30.3644L41.2237 29.7031L41.4067 29.0852L41.7439 28.4522L41.4898 27.7864L41.6813 27.1078L40.8988 26.5296L41.0986 25.8793L41.9497 25.2022L40.851 24.6531L41.1537 24.0278L41.2976 23.4206L41.708 22.8446L41.1745 22.1725L41.5734 21.6166L42.0543 21.1231L41.628 20.304L41.8962 19.6613L42.4201 19.1383L43.057 18.7163L43.9841 18.9224L44.6053 18.6672L45.3116 18.4901L46.0478 18.5526L46.9814 18.3398L47.0222 19.5369L48.0801 19.405L48.7851 19.7624L48.7406 20.571L49.6024 20.8627L48.8965 21.8414L49.3132 22.3286L49.2225 22.9708L50.5183 23.2949L49.5894 24.0984L49.5705 24.6997L50.2664 25.2184L50.4209 25.8496L50.9011 26.4616L50.2039 27.1488L50.2454 27.7817L49.8649 28.4169L50.8396 29.0677L50.1712 29.6797L50.3659 30.3319L49.9503 30.9201L50.5104 31.6611L49.7608 32.1374L50.2257 32.9436L49.6584 33.43L49.6191 34.1487L48.9586 34.5424L48.753 35.2279L48.2853 35.7489L47.3355 35.777L46.8984 36.3092L46.4879 36.9492L45.2787 36.285L44.7053 36.5988L44.1807 37.0671L43.5716 37.3957L42.9571 37.7617L42.1853 37.6111L41.6508 38.3779L40.8328 37.9446L40.1637 38.2049L39.42 37.9632L38.7828 38.8214L38.0306 37.7634L37.3082 38.8269L36.553 38.9272L35.8857 38.3971L35.0903 38.5928L34.5152 37.9958L34.058 37.3185L32.8998 38.0188L32.624 37.1281L31.705 37.1559L31.5616 36.3221L31.4108 35.6058L30.2652 35.6853L29.7918 35.1978L30.3065 34.1647L29.0189 34.1134L29.208 33.3324L28.6328 32.8769L28.0855 32.3805L28.1623 31.6948L28.4431 30.9861L27.799 30.4821L27.9403 29.8228L27.4891 29.2657L28.2566 28.5696L28.0863 27.9752L27.5015 27.4071L27.7751 26.7909L28.0759 26.1956L27.649 25.5798L26.9381 24.883L28.0857 24.4265L27.2654 23.6076L28.6239 23.3692L28.626 23.3666Z" fill="#AD7252"/>
<path d="M53.6984 17.5339L53.4806 16.5633L55.1505 16.6806L54.677 15.2966L55.8608 15.3126L56.4984 14.6806L57.4296 14.5899L58.3325 14.8779L59.2953 14.8193L60.1445 15.1979L61.4892 15.0913L61.7134 15.8486L62.1742 15.7499L62.5215 14.9526L63.7936 15.6859L64.4029 15.4646L65.0311 15.2539L65.7035 15.1739L66.5621 14.5446L67.3292 15.1926L68.071 15.5366L69.1033 14.9393L70.003 15.0086L70.1924 16.3393L71.4929 15.8086L71.8655 16.6006L72.8377 16.7366L73.4501 18.0433L73.6964 16.6646L74.5013 16.1419L75.2432 15.5766L75.7104 14.7926L76.7268 15.0299L77.4908 14.7286L78.3241 15.0299L79.2554 14.5312L80.1961 14.5419L80.9348 15.3952L81.8281 15.4406L83.1129 14.8059L83.5707 15.8379L84.2399 16.3606L84.4798 17.2619L85.4584 17.4459L86.3107 17.8299L87.2767 18.2219L86.4843 19.4993L87.4219 19.9259L88.773 20.3046L88.975 21.1019L88.5709 22.0086L88.6278 22.7819L89.7421 23.4326L89.0129 24.2886L88.8424 25.0673L89.3033 25.8326L89.1549 26.5926L88.1322 27.2993L88.4131 28.0619L88.855 28.8566L89.0697 29.6513L88.7351 30.3793L87.9743 30.9979L88.1164 31.7739L88.1764 32.5633L87.6429 33.1873L87.8922 34.1153L87.4629 34.8059L86.4086 35.0833L85.6604 35.4139L84.8554 35.4939L84.1925 35.5846L83.5328 36.4433L82.6457 36.3579L82.2575 35.3499L80.818 35.8753L81.4178 34.5473L79.8773 34.4939L80.3287 33.5846L79.3943 33.0193L79.751 32.1846L80.0035 31.4033L80.1235 30.6539L79.1733 29.9766L79.268 29.2193L78.9208 28.4753L78.8103 27.7206L79.3438 26.9633L79.9215 26.2219L78.9902 25.5579L78.9839 24.9126L78.9113 24.2726L78.5925 23.7019L78.1379 23.2806L77.6297 22.4246L76.9099 23.0886L76.2817 23.4486L75.7104 24.2753L75.622 25.0699L75.6662 25.8246L75.6409 26.5606L75.8335 27.3099L76.0734 28.0779L76.2912 28.8566L76.2249 29.6166L75.7703 30.3233L75.9124 31.0966L75.4073 31.7499L75.9755 32.6806L75.3252 33.2886L73.9331 33.5446L74.6749 34.7153L73.8574 35.1259L73.1629 35.5313L72.2821 35.5686L71.7928 36.4113L70.9121 36.2086L70.164 35.8193L69.0465 36.3046L68.1342 35.9286L67.5155 35.2726L67.0798 34.5579L67.4997 33.6353L67.1303 32.9446L66.7799 32.2353L66.6158 31.4886L65.8392 30.7953L67.1745 29.9366L66.1139 29.2406L65.7508 28.4886L66.4327 27.7179L65.7035 26.9606L67.0956 26.2193L66.8652 25.5526L67.2124 24.8619L65.694 24.3579L66.8304 23.4406L66.319 22.5126L64.9995 22.7393L64.1567 23.0273L64.0683 23.6513L63.1118 24.2486L63.0897 24.9473L62.5688 25.6246L63.7368 26.4166L62.8782 27.0966L63.1086 27.8539L62.6004 28.5366L63.3328 29.3766L62.4489 29.9899L63.1528 30.8779L62.5625 31.5233L62.714 32.3526L62.0448 32.9499L62.0353 33.7819L61.6565 34.4833L60.5233 34.7099L60.1255 35.3846L59.6741 36.1739L58.2662 35.3126L57.6254 35.5419L56.9119 35.8993L56.1007 36.0006L55.2231 36.0299L54.7117 35.3766L53.4711 35.4886L53.5311 34.4966L52.9155 33.9899L53.0007 33.1979L51.656 32.8113L52.925 31.8059L51.2898 31.3393L50.9678 30.6246L51.5108 29.8379L50.9931 29.1339L51.5802 28.3873L52.2715 27.6646L50.791 26.8859L51.7412 26.1606L51.0941 25.3739L51.9369 24.6779L52.5967 23.9926L51.5518 23.1579L51.6118 22.4113L53.0639 21.8673L51.8927 20.9339L52.7671 20.3419L52.5998 19.5419L52.4925 18.7233L53.168 18.1339L53.7047 17.5259L53.6984 17.5339Z" fill="#AD7252"/>
<path d="M93.9755 19.3034L94.5529 18.9527L95.2423 18.8024L95.5108 17.8465L96.3128 17.8945L97.0755 17.3507L97.6883 18.2899L98.2762 18.4812L99.1151 18.3867L99.8359 18.6881L99.4446 19.6559L99.6645 20.1529L100.483 20.5573L100.089 21.2246L101.102 21.7768L101.013 22.4209L100.392 23.0097L99.9864 23.5708L100.101 24.194L100.132 24.8186L99.8912 25.3949L99.6055 25.9551L100.06 26.6913L99.387 27.2003L99.0786 27.8181L99.5055 28.4403L99.9393 28.9255L99.6018 29.8466L100.682 29.7851L101.115 30.4432L101.868 30.3681L102.689 30.4245L103.359 30.0395L103.24 29.0809L103.442 28.5014L104.655 28.25L104.478 27.485L105.131 26.9535L104.891 26.2632L105.008 25.6524L104.912 24.9662L105.121 24.3626L105.774 23.9396L106.613 23.6422L106.606 22.9485L106.501 22.1266L107.639 22.1531L107.96 21.607L108.43 21.1583L108.822 20.3797L109.799 21.1993L110.424 20.1222L111.089 20.7306L111.899 20.6764L112.513 21.1083L112.822 21.762L113.347 22.1987L113.562 22.8054L114.457 23.2369L114.314 23.9299L114.114 24.5792L114.636 25.1883L113.54 25.7705L113.517 26.354L113.513 26.9486L113.426 27.5376L113.876 28.2521L113.163 28.7116L112.747 29.2636L113.244 30.0777L113.171 30.7412L111.899 31.0012L112.517 31.9115L111.817 32.3412L111.868 33.0784L110.78 33.2835L110.975 34.1169L110.461 34.5822L110.096 35.117L109.973 35.8763L109.106 35.9974L108.647 36.4923L107.88 36.59L107.5 37.2761L106.859 37.5909L105.968 37.2133L105.342 37.4896L104.784 38.4095L103.986 37.8433L103.279 37.7501L102.602 37.25L101.887 37.5867L101.156 37.777L100.384 38.0558L99.9014 36.9262L99.1161 37.2254L98.208 37.818L97.5246 37.5634L97.0047 36.9084L96.3779 36.5962L95.392 36.9768L95.0401 36.1553L94.5209 35.6989L93.7289 35.6022L93.2296 35.129L93.2643 34.2017L92.6113 33.9303L91.8459 33.6706L91.2345 33.2484L91.0492 32.6177L91.2314 31.8842L90.7408 31.3875L90.3076 30.8401L90.3686 30.1927L89.7398 29.617L89.6839 28.9688L90.2263 28.3318L90.4696 27.7238L90.8286 27.1416L91.019 26.5574L90.3894 25.834L90.5428 25.2215L91.4853 24.7974L90.6243 23.953L91.9595 23.6804L91.1721 22.8025L92.0179 22.4302L91.751 21.6629L92.4513 21.2795L93.0533 20.8945L93.5552 20.4938L93.3923 19.6461L93.9821 19.2979L93.9755 19.3034Z" fill="#AD7252"/>
<path d="M18.6401 51.6154C18.6401 51.6154 18.6109 51.6294 18.5818 51.6154C18.5478 51.6013 18.5187 51.5779 18.4895 51.5544C18.4604 51.531 18.4409 51.5028 18.4361 51.47C18.4264 51.4372 18.4361 51.4137 18.4749 51.3997C18.3292 51.3528 18.2564 51.3012 18.2564 51.2402C18.2564 51.1793 18.2564 51.123 18.2709 51.0574C18.2564 50.9776 18.2369 50.9214 18.2224 50.8792C18.2078 50.8417 18.1932 50.8088 18.1787 50.7854C18.1689 50.7619 18.1641 50.7385 18.1689 50.7197C18.1689 50.701 18.1884 50.6775 18.2127 50.6541C18.1738 50.5275 18.1349 50.4337 18.0961 50.3681C18.0572 50.3024 18.0232 50.2039 17.9941 50.0679L18.0184 49.81L18.0427 49.177L17.9844 48.755L18.1447 48.3564C18.0232 48.1923 18.0184 48.0985 18.1301 48.0751C18.1544 47.9953 18.1641 47.9344 18.1592 47.8875C18.1592 47.8406 18.1447 47.7984 18.1349 47.7562C18.1252 47.7187 18.1155 47.6765 18.1058 47.639C18.0961 47.6014 18.0961 47.5499 18.1058 47.4842C18.2175 47.4748 18.2807 47.4608 18.2952 47.4326C18.3098 47.4045 18.3438 47.367 18.4118 47.3201C18.4264 47.1888 18.4409 47.0856 18.4555 47.02C18.4652 46.9543 18.4652 46.9403 18.4507 46.9778C18.5235 46.8699 18.5964 46.7949 18.6741 46.7527C18.7518 46.7152 18.8247 46.6964 18.8975 46.7058C19.0092 46.5089 19.0675 46.4245 19.0675 46.4479C19.1161 46.4151 19.1647 46.3963 19.2132 46.3823C19.2618 46.3682 19.3104 46.3588 19.3541 46.3541C19.3978 46.3448 19.4415 46.3354 19.4804 46.3166C19.5192 46.3026 19.563 46.2744 19.6018 46.2322C19.6261 46.2322 19.6455 46.2322 19.6552 46.2228C19.6698 46.2135 19.6844 46.2041 19.7087 46.1947C19.733 46.1853 19.767 46.1713 19.8107 46.1572C19.8544 46.1431 19.9175 46.1337 20.0001 46.129C20.0487 46.1384 20.1021 46.1619 20.1604 46.1994C20.2187 46.2369 20.2964 46.2416 20.4032 46.2135C20.4615 46.1994 20.5441 46.1759 20.6607 46.1478C20.7772 46.1197 20.8598 46.1244 20.9181 46.1525C20.9521 46.19 21.0201 46.2322 21.1318 46.2744C21.2387 46.3166 21.3212 46.3541 21.3698 46.387C21.4184 46.3494 21.4767 46.3354 21.5398 46.3494C21.603 46.3635 21.6661 46.387 21.7292 46.4198C21.7875 46.4526 21.841 46.4807 21.8798 46.5136C21.9187 46.5464 21.943 46.5558 21.943 46.5511C21.9818 46.5886 22.0207 46.6308 22.0498 46.673C22.079 46.7152 22.113 46.7574 22.1421 46.7902C22.1712 46.823 22.2004 46.8512 22.2295 46.8653C22.2587 46.8793 22.2878 46.8793 22.3218 46.8653C22.283 46.9965 22.2587 47.1044 22.249 47.1747C22.2392 47.2498 22.1907 47.2685 22.0887 47.2404C22.0644 47.3717 22.0304 47.4561 21.977 47.4936C21.9284 47.5311 21.8507 47.5358 21.7438 47.5124C21.6612 47.4748 21.5981 47.442 21.5495 47.4233C21.501 47.4045 21.4912 47.3811 21.5155 47.3576C21.4767 47.4373 21.4184 47.442 21.3504 47.3811C21.2824 47.3201 21.195 47.2685 21.0881 47.2263C21.0735 47.2638 21.0395 47.2826 20.9958 47.2732C20.9521 47.2638 20.9035 47.2498 20.8501 47.2263C20.7967 47.2029 20.7481 47.1794 20.7044 47.1513C20.6607 47.1232 20.6267 47.1044 20.6024 47.0997C20.4421 47.1138 20.311 47.1466 20.2138 47.1982C20.1167 47.2498 20.073 47.292 20.0924 47.3342C20.0195 47.3013 19.9612 47.2873 19.9175 47.2826C19.8738 47.2826 19.835 47.2826 19.801 47.3013C19.767 47.3201 19.7427 47.3389 19.7232 47.367C19.7038 47.3951 19.6747 47.4186 19.6455 47.442C19.5824 47.4655 19.5289 47.4889 19.4949 47.517C19.4561 47.5452 19.4172 47.6014 19.3687 47.6859C19.3687 47.6718 19.3638 47.6765 19.3492 47.6952C19.3347 47.7187 19.3249 47.7421 19.3201 47.7703C19.3104 47.7984 19.3104 47.8218 19.3152 47.8406C19.3152 47.8594 19.3395 47.864 19.3687 47.8453C19.2861 47.9531 19.2569 48.0422 19.2715 48.1032C19.2861 48.1641 19.2812 48.2298 19.2618 48.2908L19.189 48.891L19.2715 49.3505L19.2958 49.7397L19.223 50.1289C19.2084 50.1852 19.223 50.2555 19.2764 50.3399C19.3298 50.4243 19.359 50.5369 19.3687 50.6682C19.3201 50.6588 19.3298 50.6822 19.3978 50.7385C19.4658 50.7948 19.5241 50.8463 19.5727 50.9026C19.5824 50.987 19.6018 51.0574 19.6309 51.1136C19.6601 51.1699 19.7475 51.1887 19.8884 51.1699C19.9855 51.184 20.0729 51.2262 20.1507 51.2871C20.2284 51.3481 20.2818 51.3762 20.3158 51.3715C20.413 51.3715 20.4907 51.3668 20.5392 51.3528C20.5878 51.3387 20.6364 51.3293 20.6801 51.3106C20.719 51.2965 20.7675 51.2778 20.8161 51.2637C20.8647 51.2496 20.9327 51.2355 21.025 51.2309C21.059 51.2449 21.0881 51.2449 21.1172 51.2309C21.1464 51.2168 21.1707 51.198 21.1901 51.184C21.2095 51.1699 21.229 51.1558 21.2484 51.1511C21.2678 51.1418 21.297 51.1511 21.3261 51.184L21.5107 51.0996L21.6078 51.0902C21.7875 51.0292 21.8992 51.0105 21.9478 51.0433C21.9964 51.0761 22.0061 51.1136 21.9818 51.1605C22.0061 51.198 22.0352 51.2355 22.0692 51.2731C22.1032 51.3106 22.1324 51.3481 22.1664 51.3903C22.2004 51.4325 22.2247 51.4747 22.2392 51.5216C22.2538 51.5638 22.249 51.6107 22.2247 51.6576C22.215 51.6904 22.1907 51.7138 22.1518 51.7326C22.113 51.7514 22.1227 51.7936 22.1858 51.8545C22.147 51.9014 22.113 51.9389 22.0838 51.9624C22.0547 51.9858 22.0255 51.9999 21.9915 52.0093C21.9575 52.0186 21.9187 52.0233 21.8701 52.0233C21.8215 52.0233 21.7584 52.0233 21.6758 52.0327C21.6515 52.089 21.6272 52.1218 21.603 52.1406C21.5787 52.1593 21.5544 52.164 21.535 52.164C21.5155 52.164 21.4961 52.164 21.4864 52.1593C21.4718 52.1593 21.467 52.1593 21.467 52.1781C21.331 52.239 21.1998 52.2765 21.0832 52.2906C20.9667 52.3 20.8598 52.3141 20.7627 52.3328C20.651 52.3563 20.549 52.3797 20.4567 52.3985C20.3692 52.4172 20.2867 52.3985 20.2138 52.3469H20.0487C20.0195 52.3469 19.9807 52.3469 19.9321 52.3422C19.8835 52.3422 19.8155 52.3328 19.7232 52.3234C19.7087 52.3094 19.665 52.3 19.5872 52.3C19.5095 52.3 19.4561 52.2812 19.4172 52.239C19.2958 52.1452 19.2035 52.0749 19.1355 52.028C19.0724 51.9811 19.0044 51.9342 18.9412 51.8873C18.8829 51.8545 18.8392 51.8404 18.8004 51.8404C18.7615 51.8404 18.7032 51.7936 18.6255 51.6998L18.6498 51.606L18.6401 51.6154Z" fill="#AD7252"/>
<path d="M22.9587 50.1092L22.949 49.8607L23.0461 49.495L22.9004 48.9651L22.9587 48.7072L22.9198 48.3883C23.0024 48.2336 23.051 48.1163 23.0655 48.0413C23.0801 47.9663 23.0898 47.8866 23.0898 47.8022C23.0072 47.7647 22.9781 47.7225 22.9975 47.6849C23.017 47.6474 23.0607 47.5958 23.1238 47.5302C23.187 47.4223 23.221 47.3426 23.221 47.2911C23.221 47.2395 23.221 47.1832 23.2064 47.1222C23.2647 47.1082 23.3084 47.0847 23.3424 47.0566C23.3764 47.0285 23.4007 47.005 23.4298 46.9863C23.4541 46.9675 23.4784 46.9534 23.5075 46.9441C23.5367 46.9347 23.5707 46.9441 23.6095 46.9675C23.6241 46.8831 23.6532 46.794 23.697 46.7096C23.7358 46.6252 23.765 46.583 23.7795 46.5924C23.9641 46.5924 24.1001 46.4986 24.1827 46.311C24.2215 46.3251 24.2798 46.3157 24.3478 46.2829C24.4158 46.2454 24.4935 46.2079 24.5858 46.161C24.6198 46.1844 24.6441 46.2032 24.6587 46.2219C24.6733 46.236 24.6927 46.2501 24.717 46.2594C24.7412 46.2688 24.7753 46.2688 24.8141 46.2688C24.853 46.2688 24.9161 46.2688 24.9987 46.2594C24.9987 46.2266 25.0133 46.2125 25.0327 46.2079C25.057 46.2079 25.0861 46.1985 25.1201 46.1985C25.1541 46.1985 25.1784 46.1844 25.2075 46.175C25.2318 46.1657 25.2464 46.1328 25.2561 46.0859C25.3678 46.0859 25.4795 46.0906 25.5767 46.1047C25.6787 46.1188 25.8001 46.1328 25.9361 46.1563C25.9604 46.1657 25.9993 46.1703 26.0575 46.1797C26.1158 46.1891 26.213 46.2454 26.349 46.3579C26.3878 46.372 26.4218 46.372 26.4461 46.3532C26.4704 46.3345 26.5044 46.3767 26.553 46.4892C26.689 46.522 26.7861 46.5408 26.8395 46.5549C26.893 46.5689 26.9173 46.6252 26.9173 46.7237C26.9415 46.7377 26.9804 46.7659 27.0338 46.8081C27.0873 46.8456 27.1407 46.8972 27.199 46.9628C27.2475 46.9863 27.2815 47.005 27.301 47.0191C27.3204 47.0331 27.3398 47.0519 27.3593 47.0707C27.3787 47.0894 27.403 47.1129 27.4321 47.141C27.4613 47.1691 27.5098 47.202 27.5827 47.2395C27.5973 47.3004 27.6167 47.3567 27.6361 47.3989C27.6555 47.4411 27.6458 47.4552 27.607 47.4411C27.6555 47.4974 27.6944 47.5818 27.7138 47.6943C27.7381 47.8069 27.7284 47.896 27.6895 47.9569C27.7041 48.0179 27.7333 48.0788 27.7721 48.1351C27.811 48.1914 27.811 48.2476 27.7624 48.3133L27.7867 48.6556L27.6507 49.1245L27.6993 49.4434L27.7964 49.8419L27.6507 50.2405C27.6993 50.278 27.7333 50.3109 27.7527 50.3343C27.7721 50.3578 27.777 50.3859 27.7721 50.4187C27.7624 50.4515 27.7478 50.4891 27.7235 50.536C27.6993 50.5828 27.6701 50.6438 27.641 50.7235C27.7284 50.7376 27.7721 50.7845 27.7673 50.8595C27.7624 50.9345 27.7575 51.0236 27.7478 51.1221C27.7235 51.1315 27.6944 51.1455 27.6604 51.1737C27.6264 51.2018 27.5973 51.2299 27.5681 51.2628C27.539 51.2956 27.5195 51.3237 27.5098 51.3566C27.4953 51.3894 27.5001 51.4128 27.5147 51.441C27.4273 51.5816 27.2864 51.6848 27.1018 51.7458C27.0144 51.8395 26.9415 51.8958 26.8881 51.9146C26.8347 51.9333 26.7764 51.9661 26.7133 52.013C26.6987 52.0599 26.6598 52.0881 26.6015 52.0974C26.5433 52.1068 26.5093 52.1443 26.4898 52.2147C26.4073 52.2944 26.3198 52.3272 26.2275 52.3225C26.1353 52.3131 26.0478 52.2991 25.9653 52.2756C25.8293 52.3366 25.6933 52.3694 25.5621 52.3741C25.431 52.3741 25.3241 52.4069 25.2318 52.4632C25.1493 52.3788 25.0764 52.3319 25.0133 52.3225C24.9501 52.3131 24.9015 52.3225 24.8675 52.3319C24.7801 52.3413 24.7024 52.346 24.6344 52.3507C24.5713 52.3507 24.5324 52.3225 24.5227 52.2522C24.3915 52.2428 24.2993 52.2475 24.2361 52.2569C24.1778 52.2709 24.0904 52.2569 23.9884 52.2287C24.003 52.2053 24.003 52.1818 23.9787 52.1584C23.9544 52.1349 23.9252 52.1115 23.8912 52.0927C23.8572 52.074 23.8233 52.0505 23.7893 52.0271C23.7553 52.0037 23.731 51.9755 23.7213 51.9427C23.6824 51.8958 23.6484 51.863 23.6241 51.8442C23.5998 51.8255 23.5804 51.8114 23.5707 51.802C23.5561 51.7926 23.5464 51.788 23.5415 51.7786C23.5318 51.7692 23.527 51.7504 23.5172 51.7176C23.493 51.6332 23.4541 51.5629 23.4007 51.5066C23.3472 51.4503 23.3278 51.4034 23.3472 51.3659C23.289 51.2628 23.2404 51.1877 23.1967 51.1315C23.153 51.0752 23.085 51.0189 22.9975 50.9533C23.0218 50.8689 23.0461 50.8032 23.0655 50.761C23.085 50.7188 23.0801 50.6719 23.0461 50.625C23.0072 50.5688 22.9781 50.5266 22.9684 50.4937C22.9587 50.4609 22.949 50.4375 22.949 50.4093C22.949 50.3812 22.949 50.3578 22.9538 50.3249C22.9538 50.2921 22.9587 50.2546 22.9587 50.2077L22.9344 50.1139L22.9587 50.1092ZM24.2507 50.2874C24.2118 50.3249 24.1924 50.3578 24.1924 50.3812C24.1924 50.4047 24.2021 50.4281 24.2215 50.4562C24.241 50.4844 24.2604 50.5125 24.2798 50.5453C24.2992 50.5781 24.3187 50.6204 24.3332 50.6766C24.343 50.7095 24.3478 50.761 24.3527 50.8314C24.3527 50.9017 24.3964 50.9814 24.4693 51.0658C24.5324 51.1033 24.6053 51.1455 24.6878 51.183C24.7704 51.2206 24.8384 51.2581 24.8967 51.2909C24.955 51.2768 25.0278 51.2675 25.1201 51.2675C25.2124 51.2675 25.3047 51.2581 25.3921 51.244C25.4164 51.2675 25.4553 51.2862 25.5087 51.305C25.5621 51.319 25.6155 51.3284 25.669 51.3284C25.7224 51.3284 25.7661 51.319 25.8098 51.305C25.8487 51.2909 25.873 51.2581 25.8827 51.2112C25.9167 51.2346 25.9653 51.2253 26.0284 51.1877C26.0915 51.1502 26.145 51.1315 26.1887 51.1408C26.2373 51.0096 26.2955 50.9064 26.3587 50.8407C26.4218 50.7751 26.4413 50.7141 26.4073 50.6579C26.5433 50.6438 26.6161 50.5828 26.6258 50.4797C26.6355 50.3765 26.6161 50.2827 26.5773 50.1983L26.6744 49.9029L26.7084 49.5372L26.4995 49.0682L26.485 48.6228L26.6695 48.3274C26.6355 48.2711 26.5967 48.1867 26.553 48.0741C26.5093 47.9616 26.4558 47.8584 26.4024 47.774C26.4413 47.774 26.4655 47.76 26.4753 47.7271C26.485 47.6943 26.4753 47.6662 26.4558 47.6334C26.4364 47.6005 26.4024 47.5771 26.3587 47.5583C26.315 47.5396 26.2567 47.5396 26.1935 47.563C26.1353 47.4552 26.0867 47.3895 26.043 47.3755C25.9993 47.3614 25.9847 47.3614 25.9993 47.3755C25.9118 47.3614 25.839 47.3379 25.7904 47.3098C25.7418 47.2817 25.6933 47.2535 25.6495 47.2254C25.6058 47.1973 25.5573 47.1738 25.5087 47.1551C25.4601 47.1363 25.3873 47.1316 25.2901 47.1363C25.2513 47.1598 25.2027 47.1785 25.1493 47.1926C25.0958 47.2066 25.0375 47.2535 24.9744 47.3333C24.8141 47.3708 24.6975 47.3942 24.6295 47.3989C24.5615 47.3989 24.4693 47.4223 24.3575 47.4505C24.3478 47.5583 24.3478 47.6427 24.3527 47.7037C24.3527 47.7647 24.3527 47.8303 24.3332 47.91C24.2701 47.9194 24.2264 47.9382 24.2118 47.971C24.1972 48.0038 24.1827 48.0413 24.173 48.0835C24.1633 48.1257 24.1535 48.1726 24.1438 48.2242C24.1292 48.2758 24.1001 48.3227 24.0515 48.3696L24.1341 48.6978L24.2312 49.026L24.071 49.4387L24.1681 49.8748L24.1292 50.203L24.241 50.2874H24.2507Z" fill="#AD7252"/>
<path d="M29.3724 51.8959L29.2364 51.4973V51.0519L29.2752 50.6064L29.1392 50.3344L29.1538 49.7952L29.2267 49.5935L29.1295 49.1809L29.3384 48.7354L29.2024 48.3837L29.251 48.0414L29.1684 47.5115L29.1441 47.6522C29.0615 47.6147 28.9935 47.5819 28.9352 47.5584C28.877 47.535 28.8138 47.5678 28.741 47.6522C28.6292 47.6053 28.5418 47.5209 28.4787 47.3943C28.4204 47.2677 28.4204 47.1552 28.4835 47.052C28.4495 47.0145 28.4447 46.9723 28.4641 46.9301C28.4835 46.8879 28.5127 46.8457 28.5564 46.8129C28.5952 46.7753 28.6438 46.7472 28.7021 46.7191C28.7604 46.6909 28.809 46.6722 28.8478 46.6534C28.8235 46.5831 28.8332 46.5315 28.8721 46.4987C28.911 46.4659 28.9498 46.4893 28.979 46.569H29.1392C29.1392 46.3955 29.1392 46.2548 29.1538 46.147C29.1635 46.0391 29.1878 45.9501 29.2364 45.8891C29.251 45.8516 29.2607 45.7812 29.2558 45.6781C29.2558 45.5749 29.2558 45.5093 29.2607 45.4764C29.2995 45.4202 29.3238 45.378 29.3335 45.3405C29.3432 45.3076 29.3481 45.2748 29.353 45.2514C29.353 45.2279 29.3675 45.2045 29.3772 45.1857C29.387 45.167 29.421 45.1482 29.4695 45.1341C29.5278 45.031 29.5424 44.9466 29.523 44.8809C29.5035 44.8153 29.5132 44.7496 29.5521 44.6887C29.625 44.6043 29.6784 44.548 29.7124 44.5199C29.7464 44.4917 29.7804 44.487 29.8192 44.5011C29.8435 44.4308 29.8727 44.3792 29.9067 44.3464C29.9407 44.3135 29.9747 44.2901 30.0087 44.262C30.0427 44.2385 30.0815 44.2151 30.1107 44.1869C30.1447 44.1588 30.169 44.1213 30.1835 44.0744C30.2321 44.065 30.2661 44.0603 30.2904 44.0556C30.3147 44.0556 30.3341 44.0556 30.3487 44.0556C30.3632 44.0556 30.3875 44.065 30.4167 44.0697C30.4458 44.0744 30.4847 44.0744 30.5332 44.0744C30.5672 44.0369 30.5964 44.0087 30.6304 43.9994C30.6644 43.99 30.6935 43.9759 30.7275 43.9619C30.7615 43.9525 30.7907 43.9384 30.8198 43.9196C30.849 43.9056 30.8732 43.8728 30.8975 43.8259C30.9218 43.8634 30.951 43.8821 30.9898 43.8774L31.1015 43.8681C31.1404 43.8681 31.1744 43.8634 31.2035 43.8634C31.2327 43.8634 31.2618 43.8868 31.2764 43.9337C31.3832 43.8634 31.4852 43.8212 31.5872 43.8024C31.6892 43.7884 31.7815 43.8212 31.8738 43.9103C31.8981 43.8399 31.9127 43.7977 31.9175 43.7884C31.9175 43.7743 31.8932 43.8071 31.8398 43.8774C31.9272 43.8915 31.9807 43.8868 32.0001 43.854C32.0147 43.8212 32.0098 43.8024 31.9904 43.793L32.073 43.8071C32.209 43.854 32.3255 43.915 32.4178 43.99C32.5101 44.065 32.5781 44.0697 32.617 44.0087C32.5538 44.0885 32.5344 44.1635 32.5538 44.2338C32.5781 44.3042 32.617 44.3604 32.6753 44.3979C32.617 44.4683 32.583 44.5527 32.5733 44.6558C32.5635 44.759 32.5101 44.8247 32.4227 44.8575C32.4372 44.9138 32.4227 44.9419 32.3887 44.9513C32.3498 44.9606 32.2964 44.9513 32.2284 44.9419L32.0438 44.8575L31.8835 44.8669C31.801 44.8903 31.7281 44.895 31.6601 44.8762C31.5921 44.8622 31.5338 44.895 31.495 44.9841C31.3492 44.9278 31.2375 44.9044 31.1598 44.9091C31.0821 44.9138 31.0141 44.9091 30.9461 44.8903C30.9558 44.9044 30.9461 44.9231 30.917 44.9466C30.8878 44.97 30.8587 44.9935 30.8198 45.0216C30.781 45.0497 30.747 45.0685 30.7081 45.0872C30.6692 45.106 30.6401 45.1107 30.6158 45.1107C30.6158 45.181 30.5915 45.2514 30.543 45.3217C30.4944 45.392 30.4992 45.4671 30.5527 45.5468C30.5138 45.5937 30.4798 45.6359 30.4604 45.6687C30.441 45.7015 30.4215 45.739 30.407 45.7672C30.3924 45.8 30.3778 45.8328 30.3632 45.875C30.3535 45.9125 30.3341 45.9641 30.3098 46.0298L30.5041 46.4518L30.747 46.5221L31.2812 46.5925L31.597 46.4283C31.6552 46.4377 31.7378 46.4565 31.8544 46.494C31.9661 46.5315 32.039 46.5643 32.0632 46.6065C32.0487 46.6534 32.0487 46.6956 32.0632 46.7285C32.0778 46.766 32.0924 46.7988 32.107 46.8269C32.1215 46.8597 32.1264 46.8879 32.1264 46.916C32.1264 46.9442 32.107 46.9629 32.0681 46.9817C32.1555 47.052 32.1847 47.1317 32.1507 47.2208C32.1167 47.3099 32.0438 47.3521 31.9321 47.3427C31.9564 47.4037 31.9467 47.46 31.8981 47.5115C31.8495 47.5631 31.767 47.5631 31.6552 47.5162L31.1064 47.6241L30.8247 47.4928L30.4604 47.6475L30.3875 47.882L30.4847 48.4212L30.4361 48.726L30.4604 49.0074L30.4361 49.4669L30.4118 49.9358L30.3972 50.2875L30.3584 50.5361L30.407 50.9815L30.543 51.5114L30.4944 51.713C30.4847 51.8209 30.4652 51.9334 30.4264 52.0413C30.3875 52.1491 30.3244 52.2288 30.2272 52.2757C30.2272 52.2195 30.1835 52.2054 30.0912 52.2288C30.0038 52.2523 29.9212 52.2664 29.8484 52.2664C29.7852 52.3039 29.6978 52.3039 29.5861 52.2523C29.4744 52.2054 29.4015 52.1444 29.3627 52.0647C29.3724 52.0882 29.3627 52.0929 29.353 52.0835C29.3384 52.0694 29.3141 52.0506 29.2947 52.0178C29.2704 51.985 29.251 51.9475 29.2315 51.9053C29.217 51.8631 29.2218 51.8209 29.2412 51.7834L29.3627 51.8912L29.3724 51.8959Z" fill="#AD7252"/>
<path d="M33.8343 51.8959L33.6983 51.4973V51.0519L33.7323 50.6064L33.5963 50.3344L33.6108 49.7952L33.6837 49.5935L33.5866 49.1809L33.7954 48.7354L33.6594 48.3837L33.708 48.0414L33.6254 47.5115L33.6011 47.6522C33.5186 47.6147 33.4506 47.5819 33.3923 47.5584C33.334 47.535 33.2708 47.5678 33.198 47.6522C33.0863 47.6053 32.9988 47.5209 32.9357 47.3943C32.8774 47.2677 32.8774 47.1552 32.9406 47.052C32.9066 47.0145 32.9017 46.9723 32.9211 46.9301C32.9406 46.8879 32.9697 46.8457 33.0134 46.8129C33.0523 46.7753 33.1008 46.7472 33.1591 46.7191C33.2174 46.6909 33.266 46.6722 33.3048 46.6534C33.2806 46.5831 33.2903 46.5315 33.3291 46.4987C33.368 46.4659 33.4068 46.4893 33.4408 46.569H33.6011C33.6011 46.3955 33.6011 46.2548 33.6157 46.147C33.6254 46.0391 33.6546 45.9501 33.7031 45.8891C33.7177 45.8516 33.7226 45.7812 33.7226 45.6781C33.7226 45.5749 33.7226 45.5093 33.7274 45.4764C33.7663 45.4202 33.7906 45.378 33.8003 45.3405C33.81 45.3076 33.8148 45.2748 33.8197 45.2514C33.8197 45.2279 33.8343 45.2045 33.844 45.1857C33.8586 45.167 33.8877 45.1482 33.9363 45.1341C33.9946 45.031 34.0091 44.9466 33.9897 44.8809C33.9703 44.8153 33.98 44.7496 34.0188 44.6887C34.0917 44.6043 34.1451 44.548 34.1791 44.5199C34.2131 44.4917 34.2471 44.487 34.286 44.5011C34.3103 44.4308 34.3394 44.3792 34.3734 44.3464C34.4074 44.3135 34.4414 44.2901 34.4754 44.262C34.5094 44.2338 34.5483 44.2151 34.5774 44.1869C34.6066 44.1588 34.6357 44.1213 34.6503 44.0744C34.6989 44.065 34.7377 44.0603 34.762 44.0556C34.7863 44.0556 34.8057 44.0556 34.8203 44.0556C34.8348 44.0556 34.8591 44.065 34.8883 44.0697C34.9174 44.0744 34.9563 44.0744 35.0048 44.0744C35.0388 44.0369 35.068 44.0087 35.102 43.9994C35.136 43.99 35.1651 43.9759 35.1991 43.9619C35.2331 43.9478 35.2623 43.9384 35.2914 43.9196C35.3206 43.9056 35.3448 43.8728 35.3691 43.8259C35.3934 43.8634 35.4226 43.8821 35.4614 43.8774C35.4954 43.8774 35.5343 43.8681 35.5683 43.8681C35.6071 43.8681 35.6411 43.8634 35.6703 43.8634C35.6994 43.8634 35.7286 43.8868 35.7431 43.9337C35.85 43.8634 35.952 43.8212 36.054 43.8024C36.156 43.7884 36.2483 43.8212 36.3406 43.9103C36.3649 43.8399 36.3794 43.7977 36.3843 43.7884C36.3843 43.7743 36.3649 43.8071 36.3066 43.8774C36.394 43.8915 36.4474 43.8868 36.4669 43.854C36.4814 43.8212 36.4766 43.8024 36.4523 43.793L36.5397 43.8071C36.6757 43.854 36.7923 43.915 36.8846 43.99C36.9769 44.065 37.0449 44.0697 37.0837 44.0087C37.0206 44.0885 36.9963 44.1635 37.0206 44.2338C37.0449 44.3042 37.0837 44.3604 37.142 44.3979C37.0837 44.4683 37.0497 44.5527 37.04 44.6558C37.0254 44.759 36.9769 44.8247 36.8894 44.8575C36.904 44.9138 36.8894 44.9419 36.8506 44.9513C36.8117 44.9606 36.7583 44.9513 36.6903 44.9419L36.5057 44.8575L36.3454 44.8669C36.2629 44.8903 36.19 44.895 36.122 44.8762C36.054 44.8622 36.0006 44.895 35.9568 44.9841C35.8111 44.9278 35.6994 44.9044 35.6217 44.9091C35.544 44.9091 35.476 44.9091 35.408 44.8903C35.4177 44.9044 35.408 44.9231 35.3789 44.9466C35.3497 44.97 35.3206 44.9935 35.2817 45.0216C35.2477 45.0497 35.2088 45.0685 35.1748 45.0872C35.136 45.1013 35.1069 45.1107 35.0826 45.1107C35.0826 45.181 35.0583 45.2514 35.0097 45.3217C34.9611 45.392 34.966 45.4671 35.0194 45.5468C34.9806 45.5937 34.9466 45.6359 34.9271 45.6687C34.9077 45.7062 34.8883 45.739 34.8737 45.7672C34.8591 45.8 34.8446 45.8328 34.83 45.875C34.8154 45.9125 34.8008 45.9641 34.7766 46.0298L34.9708 46.4518L35.2137 46.5221L35.748 46.5925L36.0637 46.4283C36.122 46.4377 36.2046 46.4565 36.3211 46.494C36.4329 46.5315 36.5057 46.5643 36.53 46.6065C36.5154 46.6534 36.5154 46.6956 36.53 46.7285C36.5446 46.766 36.5591 46.7988 36.5737 46.8269C36.5834 46.8597 36.5931 46.8879 36.5931 46.916C36.5931 46.9442 36.5737 46.9629 36.5349 46.9817C36.6223 47.052 36.6514 47.1317 36.6174 47.2208C36.5834 47.3099 36.5106 47.3521 36.3989 47.3427C36.4231 47.4037 36.4134 47.46 36.36 47.5115C36.3114 47.5631 36.2289 47.5631 36.1171 47.5162L35.5683 47.6241L35.2866 47.4928L34.9223 47.6475L34.8494 47.882L34.9466 48.4212L34.898 48.726L34.9223 49.0074L34.898 49.4669L34.8737 49.9358L34.8591 50.2875L34.8203 50.5361L34.8688 50.9815L35.0048 51.5114L34.9563 51.713C34.9466 51.8209 34.9271 51.9334 34.8883 52.0413C34.8494 52.1491 34.7863 52.2288 34.6891 52.2757C34.6891 52.2195 34.6454 52.2054 34.5531 52.2288C34.4657 52.2523 34.3831 52.2664 34.3103 52.2664C34.2471 52.3039 34.1597 52.3039 34.048 52.2523C33.9411 52.2054 33.8634 52.1444 33.8246 52.0647C33.8343 52.0882 33.8246 52.0929 33.81 52.0835C33.7954 52.0741 33.7711 52.0506 33.7517 52.0178C33.7274 51.985 33.708 51.9475 33.6934 51.9053C33.6788 51.8631 33.6788 51.8209 33.7031 51.7834L33.8246 51.8912L33.8343 51.8959Z" fill="#AD7252"/>
<path d="M37.8272 51.2515C37.8903 51.1437 37.9146 51.0499 37.9001 50.9796C37.8855 50.9092 37.8466 50.8295 37.7883 50.7451C37.8126 50.7076 37.8223 50.656 37.8175 50.5904C37.8175 50.5294 37.7932 50.4215 37.7495 50.2715L37.6523 49.9292L37.7883 49.4697V49.0476L37.8272 48.6819L37.7689 48.2833C37.7835 48.2505 37.7883 48.213 37.7883 48.1708C37.7883 48.1286 37.7738 48.0864 37.7641 48.0488C37.7495 48.0113 37.7349 47.9597 37.7106 47.8941C37.7495 47.8097 37.7786 47.7112 37.7883 47.5987C37.8029 47.4908 37.8126 47.4205 37.8321 47.3877C37.9195 47.3736 37.9729 47.3361 37.9826 47.2751C37.9972 47.2142 38.0312 47.1345 38.0992 47.0219C38.0652 47.0594 38.0701 47.05 38.1041 46.9938C38.1429 46.9328 38.2303 46.8484 38.3761 46.7312C38.3761 46.7546 38.3761 46.7593 38.3906 46.7406C38.4003 46.7265 38.4101 46.7077 38.4198 46.689C38.4343 46.6702 38.4441 46.6515 38.4635 46.6327C38.4781 46.614 38.4975 46.6093 38.5121 46.6139C38.5849 46.5108 38.6335 46.4545 38.6626 46.4451C38.6918 46.4358 38.7695 46.4451 38.9006 46.4873C38.9346 46.4639 38.9735 46.4264 39.0172 46.3701C39.0609 46.3138 39.1726 46.2529 39.3523 46.1825C39.3426 46.1825 39.3523 46.1825 39.3815 46.1919C39.4106 46.2013 39.4446 46.206 39.4883 46.2154C39.5321 46.2248 39.5758 46.2294 39.6243 46.2341C39.6681 46.2341 39.7069 46.2388 39.7409 46.2388C39.7749 46.2388 39.7992 46.2341 39.8284 46.2201C39.8526 46.2107 39.8769 46.2013 39.9012 46.1966C39.9255 46.1966 39.9595 46.1919 39.9983 46.1919C40.0372 46.1919 40.0906 46.2013 40.1586 46.2294C40.2315 46.1685 40.3189 46.1403 40.4209 46.145C40.5229 46.1497 40.5958 46.1872 40.6444 46.2529C40.6832 46.2201 40.7172 46.206 40.7415 46.2107C40.7658 46.2107 40.7901 46.2201 40.8144 46.2341C40.8386 46.2435 40.8629 46.2576 40.8872 46.2716C40.9115 46.281 40.9455 46.281 40.9941 46.267C41.0669 46.2529 41.1398 46.2623 41.2078 46.2951C41.2758 46.3279 41.3778 46.3889 41.5041 46.478C41.5284 46.5342 41.5624 46.5624 41.6061 46.5717C41.6498 46.5811 41.7032 46.6139 41.7566 46.6796C41.8052 46.7499 41.8441 46.8109 41.8781 46.8625C41.9121 46.9141 41.9169 46.9469 41.8926 46.9609C41.9558 46.9609 41.9995 46.9844 42.0141 47.0313C42.0286 47.0782 42.0384 47.1438 42.0384 47.2329C42.0966 47.2798 42.1306 47.3267 42.1452 47.3783C42.1598 47.4299 42.1695 47.4721 42.1695 47.5096C42.1695 47.5471 42.1695 47.5752 42.1549 47.5987C42.1452 47.6221 42.1452 47.6268 42.1549 47.6081C42.1646 47.7722 42.1744 47.8988 42.1841 47.9879C42.1938 48.077 42.1938 48.1614 42.1792 48.2411C42.1938 48.2552 42.1986 48.2692 42.1986 48.2786C42.1986 48.288 42.1986 48.2974 42.1986 48.3161C42.1986 48.3302 42.2132 48.3536 42.2278 48.3865C42.2424 48.4193 42.2764 48.4709 42.3249 48.5412C42.2764 48.5881 42.2424 48.6209 42.2278 48.6397C42.2132 48.6584 42.1986 48.6772 42.1889 48.6959C42.1792 48.7147 42.1695 48.7428 42.1598 48.7803C42.1501 48.8179 42.1258 48.8741 42.0918 48.9492C42.0918 49.0195 42.0675 49.0804 42.0189 49.1273C41.9704 49.1742 41.9704 49.1789 42.0189 49.1414C41.9606 49.2024 41.9218 49.2586 41.9024 49.3008C41.8829 49.343 41.8684 49.3806 41.8538 49.4087C41.8392 49.4368 41.8295 49.465 41.8246 49.4931C41.8149 49.5212 41.8004 49.5494 41.7761 49.5822C41.6546 49.5963 41.5818 49.6291 41.5575 49.676C41.5332 49.7229 41.4992 49.7885 41.4458 49.8776C41.4069 49.8448 41.3632 49.8307 41.3098 49.8307C41.2564 49.8307 41.2126 49.8307 41.1641 49.8401C41.1155 49.8495 41.0718 49.8495 41.0281 49.8495C40.9844 49.8495 40.9552 49.8307 40.9309 49.7932C40.8678 49.8073 40.7804 49.8401 40.6735 49.887C40.5666 49.9339 40.5132 49.9808 40.5035 50.0277C40.4404 50.037 40.3918 50.0277 40.3578 50.0136C40.3238 49.9995 40.2946 49.9808 40.2606 49.9573C40.2266 49.9339 40.1926 49.9151 40.1489 49.9011C40.1101 49.887 40.0518 49.8776 39.9789 49.8776C39.9304 49.9386 39.8672 49.962 39.7846 49.9433C39.7021 49.9245 39.6438 49.9104 39.6001 49.9011C39.5612 49.8776 39.4981 49.8823 39.4106 49.9104C39.3281 49.9433 39.2503 49.9386 39.1872 49.9011C39.1629 49.887 39.1192 49.887 39.0609 49.9057C38.9978 49.9245 38.9201 49.9433 38.8229 49.9573L38.9686 50.3934C38.9298 50.5247 38.9006 50.6138 38.8861 50.656C38.8715 50.6982 38.8861 50.7498 38.9346 50.8014C38.9249 50.8154 38.9346 50.8389 38.9638 50.8717C38.9929 50.9045 39.0269 50.9374 39.0658 50.9702C39.1046 51.0077 39.1435 51.0405 39.1726 51.0686C39.2066 51.1015 39.2261 51.1202 39.2309 51.1249C39.2309 51.1484 39.2455 51.1718 39.2795 51.1953C39.3135 51.2187 39.3475 51.2375 39.3912 51.2562C39.4349 51.275 39.4738 51.2797 39.5126 51.2844C39.5515 51.2844 39.5855 51.2844 39.6098 51.2656C39.6243 51.275 39.6583 51.289 39.7021 51.3078C39.7458 51.3266 39.7992 51.3453 39.8526 51.3688C39.9109 51.3875 39.9644 51.4063 40.0178 51.4203C40.0712 51.4344 40.1149 51.4438 40.1586 51.4438C40.2072 51.4438 40.2801 51.4063 40.3724 51.3359C40.4646 51.2656 40.5909 51.214 40.7415 51.1812C40.8289 51.1718 40.9163 51.1718 40.9989 51.1718C41.0815 51.1718 41.1106 51.1624 41.0961 51.1484C41.1932 51.139 41.2904 51.1249 41.3826 51.1015C41.4749 51.078 41.5381 51.0827 41.5721 51.1109C41.6595 51.078 41.7421 51.0546 41.8198 51.0264C41.8975 51.003 41.9655 51.0124 42.0335 51.0499C42.0335 51.1109 42.0432 51.1859 42.0578 51.275C42.0724 51.3594 42.0821 51.425 42.0821 51.4625C42.1161 51.5001 42.1209 51.5469 42.1064 51.5985C42.0918 51.6501 42.0724 51.7111 42.0578 51.7814C41.9461 51.8893 41.8586 51.9596 41.8004 51.9924C41.7421 52.0252 41.6644 52.0299 41.5672 52.0159C41.5186 52.0956 41.4652 52.1331 41.4021 52.1331C41.3389 52.1331 41.3049 52.1331 41.2855 52.1425C41.1398 52.2034 41.0329 52.2409 40.9649 52.2503C40.8969 52.2597 40.8678 52.2831 40.8872 52.3207C40.8386 52.2972 40.7852 52.2831 40.7269 52.2831C40.6686 52.2831 40.6201 52.2831 40.5764 52.2972C40.5326 52.3113 40.4938 52.3066 40.4695 52.3019C40.4404 52.3019 40.4258 52.2785 40.4258 52.2503C40.4015 52.3066 40.3675 52.3394 40.3238 52.3488C40.2801 52.3629 40.2364 52.3629 40.1975 52.3629C40.1586 52.3629 40.1198 52.3582 40.0906 52.3582C40.0615 52.3582 40.0421 52.3722 40.0421 52.4051C39.9789 52.3675 39.8963 52.3347 39.7992 52.316C39.7021 52.2972 39.6486 52.2972 39.6389 52.3207C39.5515 52.3207 39.4301 52.316 39.2843 52.3019C39.1386 52.2878 39.0221 52.2644 38.9298 52.2269C38.8812 52.2409 38.8375 52.2128 38.7938 52.1425C38.7549 52.0721 38.6821 52.0159 38.5849 51.9783C38.5606 51.9549 38.5315 51.9127 38.4975 51.8564C38.4635 51.8002 38.4246 51.7626 38.3761 51.7439C38.2449 51.7064 38.1624 51.6501 38.1283 51.5845C38.0895 51.5188 38.1041 51.4719 38.1721 51.4485C38.0992 51.3922 38.0312 51.3453 37.9778 51.3031C37.9195 51.2609 37.8855 51.2093 37.8661 51.1437L37.8078 51.2515H37.8272ZM39.0075 48.9163C38.9735 48.9163 39.0075 48.9116 39.1046 48.8976C39.2018 48.8835 39.3183 48.907 39.4592 48.9632C39.4932 48.9726 39.5175 48.9773 39.5369 48.9867C39.5563 48.996 39.5806 49.0007 39.6049 49.0101C39.6292 49.0195 39.6535 49.0242 39.6826 49.0289C39.7118 49.0289 39.7555 49.0289 39.8089 49.0101C39.8332 48.9867 39.8575 48.9773 39.8866 48.982C39.9158 48.982 39.9498 48.996 39.9983 49.0054C40.0469 49.0148 40.0955 49.0289 40.1635 49.0429C40.2266 49.0523 40.3044 49.057 40.3966 49.0476C40.4355 49.0336 40.4695 49.0195 40.4938 49.0101C40.5181 49.0007 40.5424 48.9914 40.5715 48.982C40.6006 48.9726 40.6298 48.9492 40.6686 48.9257C40.7075 48.8976 40.7609 48.8554 40.8338 48.8038C40.8192 48.8272 40.8192 48.8366 40.8386 48.8272C40.8581 48.8179 40.8824 48.8038 40.9066 48.785C40.9309 48.7663 40.9552 48.7475 40.9746 48.7288C40.9941 48.71 40.9989 48.7053 40.9941 48.71C40.9795 48.6256 40.9795 48.5224 40.9989 48.4099C41.0183 48.2974 41.0475 48.2083 41.0912 48.1473C41.0669 48.1239 41.0524 48.091 41.0524 48.0535C41.0524 48.016 41.0524 47.9738 41.0475 47.9363C41.0475 47.8988 41.0329 47.866 41.0086 47.8425C40.9892 47.8191 40.9503 47.8097 40.8921 47.8191C40.8775 47.7159 40.8581 47.6409 40.8435 47.594C40.8289 47.5471 40.7949 47.5049 40.7464 47.4627C40.7366 47.3595 40.7075 47.3079 40.6638 47.3033C40.6152 47.3033 40.5521 47.2798 40.4695 47.2376C40.4792 47.2282 40.4695 47.2282 40.4306 47.2282C40.3918 47.2282 40.3578 47.2282 40.3044 47.2142C40.2509 47.2048 40.1975 47.1954 40.1441 47.1813C40.0906 47.1673 40.0469 47.1438 40.0178 47.111C39.9789 47.1579 39.9206 47.2001 39.8478 47.2423C39.7749 47.2798 39.7069 47.2704 39.6389 47.2048C39.5904 47.2376 39.5466 47.2564 39.5029 47.2657C39.4592 47.2751 39.4252 47.2798 39.3912 47.2845C39.3572 47.2892 39.3232 47.2939 39.2892 47.3079C39.2552 47.3173 39.2163 47.3408 39.1726 47.3736C39.1823 47.397 39.1726 47.4205 39.1532 47.4486C39.1338 47.4768 39.1046 47.5049 39.0755 47.5377C39.0415 47.5705 39.0075 47.6034 38.9735 47.6362C38.9346 47.6737 38.9103 47.7112 38.8958 47.7581C38.9103 47.7722 38.9006 47.8238 38.8666 47.9035C38.8326 47.9832 38.8278 48.0957 38.8618 48.227L38.9346 48.5787L38.8958 48.9069L39.0075 48.9163Z" fill="#AD7252"/>
<path d="M43.1895 51.2515C43.2527 51.1437 43.277 51.0499 43.2624 50.9796C43.2478 50.9092 43.209 50.8295 43.1555 50.7451C43.1798 50.7076 43.1895 50.656 43.1847 50.5904C43.1847 50.5294 43.1604 50.4215 43.1167 50.2715L43.0195 49.9292L43.1555 49.4697V49.0476L43.1895 48.6819L43.1312 48.2833C43.1458 48.2505 43.1555 48.213 43.1507 48.1708C43.1507 48.1286 43.141 48.0864 43.1264 48.0488C43.1118 48.0113 43.0972 47.9597 43.073 47.8941C43.1118 47.8097 43.141 47.7112 43.1507 47.5987C43.1652 47.4908 43.175 47.4205 43.1944 47.3877C43.2818 47.3736 43.3352 47.3361 43.345 47.2751C43.3547 47.2142 43.3935 47.1345 43.4615 47.0219C43.4275 47.0594 43.4324 47.05 43.4664 46.9938C43.5004 46.9328 43.5927 46.8484 43.7384 46.7312C43.7384 46.7546 43.7384 46.7593 43.753 46.7406C43.7627 46.7265 43.7724 46.7077 43.7821 46.689C43.7967 46.6702 43.8064 46.6515 43.8258 46.6327C43.8452 46.614 43.8598 46.6093 43.8744 46.6139C43.9472 46.5108 43.9958 46.4545 44.025 46.4451C44.0541 46.4358 44.1318 46.4451 44.263 46.4873C44.297 46.4639 44.3358 46.4264 44.3795 46.3701C44.4232 46.3138 44.535 46.2529 44.7147 46.1825C44.705 46.1825 44.7147 46.1825 44.7438 46.1919C44.773 46.2013 44.807 46.206 44.8555 46.2154C44.9041 46.2248 44.943 46.2294 44.9915 46.2341C45.0352 46.2341 45.0741 46.2388 45.1081 46.2388C45.1421 46.2388 45.1664 46.2341 45.1907 46.2201C45.215 46.2107 45.2392 46.2013 45.2635 46.1966C45.2878 46.1966 45.3218 46.1919 45.3607 46.1919C45.3995 46.1919 45.453 46.2013 45.521 46.2294C45.5938 46.1685 45.6813 46.1403 45.7833 46.145C45.8853 46.1497 45.9581 46.1872 46.0067 46.2529C46.0455 46.2201 46.0795 46.206 46.1038 46.2107C46.1281 46.2107 46.1524 46.2201 46.1767 46.2341L46.2495 46.2716C46.2495 46.2716 46.3078 46.281 46.3564 46.267C46.4292 46.2529 46.5021 46.2623 46.5701 46.2951C46.6381 46.3326 46.7401 46.3889 46.8664 46.478C46.8907 46.5342 46.9247 46.5624 46.9684 46.5717C47.0121 46.5811 47.0655 46.6139 47.119 46.6796C47.1675 46.7499 47.2064 46.8109 47.2404 46.8625C47.2744 46.9141 47.2793 46.9469 47.2501 46.9609C47.3133 46.9609 47.357 46.9844 47.3715 47.0313C47.3861 47.0782 47.3958 47.1438 47.3958 47.2329C47.4541 47.2798 47.4881 47.3267 47.5075 47.3783C47.5221 47.4299 47.5318 47.4721 47.5318 47.5096C47.5318 47.5471 47.5318 47.5752 47.5221 47.5987C47.5124 47.6221 47.5124 47.6268 47.5221 47.6081C47.5318 47.7722 47.5415 47.8988 47.5513 47.9879C47.561 48.077 47.561 48.1614 47.5464 48.2411C47.561 48.2552 47.5707 48.2692 47.5658 48.2786C47.5658 48.288 47.5658 48.2974 47.5658 48.3161C47.5658 48.3302 47.5804 48.3536 47.595 48.3865C47.6095 48.4193 47.6435 48.4709 47.6921 48.5412C47.6435 48.5881 47.6095 48.6209 47.595 48.6397C47.5804 48.6584 47.5658 48.6772 47.561 48.6959C47.5513 48.7147 47.5415 48.7428 47.5318 48.7803C47.5173 48.8179 47.4978 48.8741 47.4638 48.9492C47.4638 49.0195 47.4395 49.0804 47.391 49.1273C47.3424 49.1742 47.3424 49.1789 47.391 49.1414C47.3327 49.2024 47.2938 49.2586 47.2744 49.3008C47.255 49.343 47.2355 49.3806 47.2258 49.4087C47.2161 49.4368 47.2015 49.465 47.1967 49.4931C47.1918 49.5212 47.1724 49.5494 47.1481 49.5822C47.0267 49.5963 46.9538 49.6291 46.9295 49.676C46.9053 49.7229 46.8713 49.7885 46.8178 49.8776C46.779 49.8448 46.7353 49.8307 46.6818 49.8307C46.6284 49.8307 46.5847 49.8307 46.5361 49.8401C46.4875 49.8495 46.4438 49.8495 46.4001 49.8495C46.3564 49.8495 46.3272 49.8307 46.303 49.7932C46.2398 49.8073 46.1524 49.8401 46.0455 49.887C45.9387 49.9339 45.8853 49.9808 45.8755 50.0277C45.8124 50.037 45.7638 50.0277 45.7298 50.0136C45.6958 49.9995 45.6667 49.9808 45.6327 49.9573C45.5987 49.9339 45.5647 49.9151 45.521 49.9011C45.4821 49.887 45.4238 49.8776 45.351 49.8776C45.3024 49.9386 45.2393 49.962 45.1567 49.9433C45.0741 49.9245 45.0158 49.9104 44.9721 49.9011C44.9333 49.8776 44.8701 49.8823 44.7827 49.9104C44.7001 49.9433 44.6224 49.9386 44.5592 49.9011C44.535 49.887 44.4912 49.887 44.433 49.9057C44.3698 49.9245 44.2921 49.9433 44.195 49.9573L44.3407 50.3934C44.3018 50.5247 44.2727 50.6138 44.2581 50.656C44.2435 50.6982 44.2581 50.7498 44.3067 50.8014C44.297 50.8154 44.3067 50.8389 44.3358 50.8717C44.365 50.9045 44.399 50.9374 44.4378 50.9702C44.4767 51.003 44.5155 51.0405 44.5495 51.0686C44.5835 51.1015 44.603 51.1202 44.6078 51.1249C44.6078 51.1484 44.6224 51.1718 44.6564 51.1953C44.6904 51.2187 44.7244 51.2375 44.7632 51.2562C44.8021 51.2703 44.8458 51.2797 44.8847 51.2844C44.9235 51.289 44.9575 51.2844 44.9818 51.2656C44.9964 51.275 45.0304 51.289 45.0741 51.3078C45.1178 51.3266 45.1713 51.3453 45.2247 51.3688C45.283 51.3875 45.3364 51.4063 45.3898 51.4203C45.4433 51.4344 45.487 51.4438 45.5307 51.4438C45.5792 51.4438 45.6521 51.4063 45.7444 51.3359C45.8367 51.2656 45.963 51.214 46.1135 51.1812C46.201 51.1718 46.2884 51.1718 46.371 51.1718C46.4535 51.1718 46.4827 51.1624 46.4681 51.1484C46.5653 51.139 46.6624 51.1249 46.7547 51.1015C46.847 51.078 46.9101 51.0827 46.9441 51.1109C47.0315 51.078 47.1141 51.0546 47.1918 51.0264C47.2695 50.9983 47.3375 51.0124 47.4055 51.0499C47.4055 51.1109 47.4153 51.1859 47.4298 51.275C47.4444 51.3594 47.4541 51.425 47.4541 51.4625C47.4881 51.5001 47.493 51.5469 47.4784 51.5985C47.4638 51.6501 47.4444 51.7111 47.4298 51.7814C47.3181 51.8893 47.2307 51.9596 47.1724 51.9924C47.1141 52.0252 47.0364 52.0299 46.9441 52.0159C46.8955 52.0956 46.8421 52.1331 46.779 52.1331C46.7158 52.1331 46.6818 52.1331 46.6624 52.1425C46.5167 52.2034 46.4098 52.2409 46.3418 52.2503C46.2738 52.2597 46.2447 52.2831 46.2641 52.3207C46.2155 52.2972 46.1621 52.2831 46.1038 52.2831C46.0455 52.2831 45.997 52.2831 45.9533 52.2972C45.9095 52.3113 45.8707 52.3066 45.8415 52.3019C45.8124 52.3019 45.7978 52.2785 45.7978 52.2503C45.7735 52.3066 45.7395 52.3394 45.6958 52.3488C45.6521 52.3629 45.6084 52.3629 45.5695 52.3629C45.5307 52.3629 45.4918 52.3582 45.4578 52.3582C45.4238 52.3582 45.4092 52.3722 45.4092 52.4051C45.3461 52.3675 45.2635 52.3347 45.1664 52.316C45.0692 52.2972 45.0158 52.2972 45.0061 52.3207C44.9187 52.3207 44.7972 52.316 44.6515 52.3019C44.5058 52.2878 44.3893 52.2644 44.297 52.2269C44.2484 52.2409 44.2047 52.2128 44.161 52.1425C44.1221 52.0721 44.0492 52.0159 43.9521 51.9783C43.9278 51.9549 43.8987 51.9127 43.8647 51.8564C43.8307 51.8002 43.7918 51.7626 43.7432 51.7439C43.6121 51.7064 43.5295 51.6501 43.4955 51.5845C43.4567 51.5188 43.4712 51.4719 43.5393 51.4485C43.4664 51.3922 43.4032 51.3453 43.345 51.3031C43.2867 51.2609 43.2527 51.2093 43.2332 51.1437L43.175 51.2515H43.1895ZM44.3698 48.9163C44.3358 48.9163 44.3698 48.9116 44.467 48.8976C44.5641 48.8882 44.6807 48.907 44.8215 48.9632C44.8555 48.9726 44.8798 48.9773 44.8992 48.9867C44.9187 48.996 44.943 49.0007 44.9672 49.0101C44.9915 49.0195 45.0158 49.0242 45.045 49.0289C45.0741 49.0289 45.1178 49.0289 45.1713 49.0101C45.1955 48.9867 45.2198 48.9773 45.249 48.982C45.2781 48.982 45.3121 48.996 45.3558 49.0054C45.3995 49.0148 45.4578 49.0289 45.521 49.0429C45.5841 49.0523 45.6618 49.057 45.7541 49.0476C45.793 49.0336 45.827 49.0195 45.8513 49.0101C45.8755 49.0007 45.8998 48.9914 45.929 48.982C45.9581 48.9726 45.9873 48.9492 46.0261 48.9257C46.065 48.9023 46.1184 48.8554 46.1913 48.8038C46.1767 48.8272 46.1767 48.8366 46.1961 48.8272C46.2155 48.8179 46.2398 48.8038 46.2641 48.785C46.2884 48.7663 46.3127 48.7475 46.3321 48.7288C46.3515 48.71 46.3564 48.7053 46.3515 48.71C46.337 48.6256 46.337 48.5224 46.3564 48.4099C46.3758 48.2974 46.405 48.2083 46.4487 48.1473C46.4244 48.1239 46.4098 48.091 46.4098 48.0535C46.4098 48.016 46.4098 47.9738 46.405 47.9363C46.405 47.8988 46.3904 47.866 46.3661 47.8425C46.3418 47.8191 46.3078 47.8097 46.2495 47.8191C46.235 47.7159 46.2155 47.6409 46.201 47.594C46.1864 47.5471 46.1524 47.5049 46.1038 47.4627C46.0941 47.3595 46.065 47.3079 46.0164 47.3033C45.9678 47.3033 45.9047 47.2798 45.8221 47.2376C45.8318 47.2282 45.8221 47.2282 45.7833 47.2282C45.7444 47.2282 45.7055 47.2282 45.657 47.2142C45.6035 47.2048 45.5501 47.1954 45.4967 47.1813C45.4433 47.1673 45.3995 47.1438 45.3704 47.111C45.3315 47.1579 45.2733 47.2001 45.2004 47.2423C45.1275 47.2798 45.0595 47.2704 44.9915 47.2048C44.943 47.2376 44.8992 47.2564 44.8555 47.2657C44.8167 47.2751 44.7778 47.2798 44.7438 47.2845C44.7098 47.2845 44.6758 47.2939 44.6418 47.3079C44.6078 47.322 44.5641 47.3408 44.5253 47.3736C44.535 47.397 44.5252 47.4205 44.5058 47.4486C44.4864 47.4768 44.4573 47.5049 44.4281 47.5377C44.3941 47.5705 44.3601 47.6034 44.3261 47.6362C44.2872 47.6737 44.263 47.7112 44.2484 47.7581C44.263 47.7722 44.2532 47.8238 44.2192 47.9035C44.1804 47.9879 44.1804 48.0957 44.2144 48.227L44.2872 48.5787L44.2533 48.9069L44.3601 48.9163H44.3698Z" fill="#AD7252"/>
<path d="M51.9017 51.7434C51.8386 51.7294 51.79 51.6919 51.7657 51.6356C51.7414 51.5793 51.6832 51.523 51.5957 51.4574C51.5229 51.373 51.4694 51.298 51.4354 51.2417C51.4014 51.1807 51.416 51.1479 51.4743 51.1292C51.45 51.0448 51.4257 50.9838 51.4063 50.9463C51.3869 50.9088 51.3674 50.8525 51.3529 50.7775C51.2557 50.6931 51.1926 50.6368 51.1586 50.6133C51.1246 50.5899 51.1586 50.5618 51.2412 50.5289C51.2412 50.3789 51.2266 50.2804 51.1974 50.2242C51.1683 50.1679 51.1197 50.1397 51.0469 50.1304C51.0857 50.0506 51.1197 49.9897 51.1392 49.9475C51.1586 49.9053 51.1683 49.8678 51.1683 49.835C51.1683 49.8021 51.1683 49.7693 51.1586 49.7271C51.1489 49.6849 51.144 49.6333 51.1343 49.563C51.1246 49.577 51.1246 49.577 51.1343 49.5583C51.144 49.5395 51.1537 49.5114 51.1634 49.4833C51.1732 49.4551 51.1877 49.4176 51.1974 49.3754C51.212 49.3379 51.2217 49.3051 51.2266 49.2816C51.2606 49.2582 51.2849 49.23 51.2994 49.1925C51.314 49.155 51.3286 49.1222 51.3432 49.08C51.3577 49.0378 51.3772 49.0003 51.4014 48.9581C51.4257 48.9159 51.4743 48.8737 51.5423 48.8362C51.5277 48.7518 51.5423 48.6861 51.5763 48.6439C51.6103 48.6017 51.6346 48.5501 51.6346 48.4845C51.6686 48.4516 51.7074 48.4329 51.7512 48.4188C51.7949 48.4094 51.8386 48.4001 51.8726 48.3954C51.9066 48.3907 51.9357 48.386 51.9552 48.3719C51.9746 48.3626 51.9794 48.3438 51.9746 48.3203C52.0329 48.2828 52.0766 48.25 52.1106 48.2219C52.1446 48.1937 52.1737 48.1656 52.2029 48.1328C52.232 48.1 52.2563 48.0624 52.2757 48.0202C52.2952 47.978 52.3243 47.9218 52.3535 47.8514C52.4117 47.8655 52.4603 47.8702 52.4992 47.8561C52.538 47.8467 52.5769 47.8233 52.6157 47.7905C52.6497 47.7577 52.6886 47.7248 52.7177 47.692C52.7517 47.6545 52.7809 47.6217 52.8149 47.5935C52.7906 47.4904 52.7372 47.4153 52.6546 47.3685C52.572 47.3216 52.5283 47.284 52.5186 47.2512C52.4797 47.2137 52.4409 47.1434 52.402 47.0449C52.3632 46.9464 52.2952 46.8151 52.1883 46.651C52.164 46.6182 52.1495 46.5901 52.1446 46.5619C52.1446 46.5338 52.1397 46.5056 52.1397 46.4775C52.1397 46.4494 52.1397 46.4166 52.1349 46.379C52.13 46.3415 52.1155 46.2853 52.0912 46.2149C52.0766 46.1446 52.0377 46.0789 51.9892 46.0227C51.9357 45.9664 51.9017 45.8585 51.8872 45.6991C51.8726 45.685 51.8726 45.6663 51.8872 45.6475C51.9017 45.6288 51.926 45.6006 51.9552 45.5631C51.9843 45.5256 52.0134 45.4834 52.0426 45.4271C52.0717 45.3709 52.0912 45.3052 52.096 45.2255C52.1106 45.2349 52.13 45.2161 52.1495 45.1739C52.1689 45.1317 52.1834 45.0801 52.1932 45.0286C52.1786 44.9489 52.1786 44.8879 52.1932 44.8363C52.2077 44.7847 52.2612 44.7425 52.3535 44.7003C52.3632 44.6441 52.3777 44.5925 52.402 44.5456C52.4263 44.4987 52.4554 44.4565 52.4894 44.4237C52.5234 44.3908 52.5477 44.358 52.5672 44.3346C52.5866 44.3111 52.5963 44.2971 52.5963 44.2877C52.6109 44.2408 52.6692 44.222 52.7614 44.2361C52.8537 44.2455 52.9315 44.2455 52.9995 44.2314C53.048 44.1751 53.0869 44.1142 53.116 44.0485C53.1452 43.9829 53.2035 43.9594 53.2909 43.9829C53.3637 43.9735 53.4269 43.9641 53.4803 43.9454C53.5337 43.9313 53.6212 43.9219 53.7426 43.9219C53.7572 43.9125 53.7863 43.9125 53.8203 43.9125C53.8543 43.9125 53.8932 43.9125 53.9223 43.9079C53.9515 43.9032 53.9806 43.8938 54 43.8844C54.0195 43.875 54.0292 43.8516 54.0292 43.8188C54.1166 43.7812 54.1943 43.7719 54.2623 43.7906C54.3255 43.8094 54.4226 43.8281 54.5537 43.8422C54.5683 43.8657 54.5975 43.8891 54.6315 43.9079C54.6703 43.9266 54.7043 43.9407 54.7432 43.9547C54.7772 43.9641 54.8112 43.9688 54.8355 43.9641C54.8597 43.9641 54.8695 43.9407 54.8597 43.8985C54.9472 43.9079 55.0443 43.936 55.1463 43.9876C55.2483 44.0392 55.3163 44.0673 55.36 44.0767C55.4475 44.0907 55.53 44.1282 55.598 44.1892C55.666 44.2455 55.7243 44.3017 55.7729 44.3486C55.836 44.3862 55.8943 44.4518 55.938 44.5362C55.9817 44.6206 56.0109 44.6675 56.0303 44.6769C56.0643 44.7331 56.0886 44.78 56.1032 44.8176C56.1177 44.8551 56.1323 44.8926 56.1372 44.9254C56.1469 44.9582 56.1566 44.9817 56.176 44.9957C56.1906 45.0098 56.2197 45.0239 56.2586 45.0333C56.244 45.127 56.2295 45.1927 56.2246 45.2255C56.2149 45.263 56.1906 45.3427 56.1517 45.4787C56.1857 45.4928 56.2003 45.5162 56.2003 45.5444C56.2003 45.5725 56.2003 45.6006 56.1857 45.6335C56.176 45.6663 56.1615 45.7038 56.1372 45.7507C56.04 45.8585 55.9575 45.9289 55.8943 45.957C55.8312 45.9852 55.7389 45.9664 55.6272 45.9054C55.5786 45.9289 55.5155 45.9195 55.4377 45.8773C55.36 45.8351 55.2677 45.8163 55.1657 45.8257C55.2143 45.7929 55.2192 45.7648 55.1803 45.7319C55.1415 45.6991 55.122 45.6522 55.122 45.5913V45.2958C55.0832 45.2349 55.0346 45.1833 54.9763 45.1505C54.918 45.1177 54.85 45.1083 54.7675 45.1317C54.7286 45.0145 54.6509 44.9254 54.544 44.8691C54.4323 44.8129 54.3206 44.7847 54.2089 44.7941C54.136 44.7941 54.068 44.8316 54 44.9066C53.9369 44.9817 53.8495 45.0239 53.7426 45.0286H53.6066C53.5337 45.0286 53.4755 45.0801 53.4366 45.1833C53.4366 45.1974 53.4317 45.2114 53.4172 45.2255C53.4026 45.2396 53.3929 45.249 53.3783 45.2677C53.3686 45.2818 53.354 45.3099 53.3395 45.3427C53.3249 45.3756 53.3152 45.4318 53.3103 45.5022C53.286 45.5491 53.252 45.6006 53.2083 45.6616C53.1646 45.7226 53.1257 45.7788 53.0917 45.8445C53.082 45.8585 53.0917 45.9007 53.1306 45.9617C53.1646 46.0227 53.1937 46.0836 53.2277 46.1399C53.252 46.1727 53.3006 46.2055 53.3686 46.2477C53.4366 46.2853 53.4803 46.3556 53.4949 46.4588C53.5289 46.4822 53.5483 46.5057 53.5629 46.5244C53.5775 46.5432 53.5823 46.5666 53.5823 46.5947C53.5823 46.6229 53.5823 46.6557 53.5872 46.6932C53.5872 46.7307 53.6066 46.787 53.6309 46.8573C53.6892 46.8433 53.728 46.8386 53.7475 46.8526C53.7669 46.862 53.7815 46.8855 53.7912 46.9089C53.8009 46.9371 53.8057 46.9699 53.8155 47.0027C53.8252 47.0355 53.8446 47.073 53.8737 47.1012L54.2283 46.7729L54.5586 46.6182C54.6315 46.6323 54.6849 46.6416 54.7237 46.6463C54.7626 46.6463 54.8257 46.6651 54.9132 46.6885C54.9472 46.6557 54.9812 46.6416 55.02 46.6416C55.0589 46.6416 55.0977 46.6463 55.1366 46.6604C55.1755 46.6698 55.2046 46.6885 55.2337 46.7073C55.2629 46.726 55.2823 46.7401 55.2872 46.7495C55.3843 46.8573 55.4572 46.937 55.5057 46.9792C55.5543 47.0215 55.5592 47.0543 55.5203 47.0777C55.5835 47.2418 55.5786 47.3544 55.496 47.42C55.4135 47.481 55.3406 47.5279 55.2775 47.5607L54.7917 47.9265L54.9472 48.2313L55.2143 48.5032L55.5543 48.7986L55.6757 48.9768L55.9769 49.2488L56.2683 49.5302C56.2683 49.4692 56.2926 49.4223 56.3363 49.3989C56.38 49.3754 56.4383 49.3098 56.5112 49.1972C56.5355 49.1832 56.5597 49.1363 56.5889 49.0566C56.618 48.9768 56.6326 48.9253 56.6326 48.9018C56.6957 48.8315 56.7346 48.7518 56.7492 48.6673C56.7589 48.5829 56.7783 48.4892 56.8026 48.386C56.8852 48.325 56.9337 48.2828 56.9532 48.2688C56.9726 48.2547 56.9386 48.2406 56.8512 48.2313C56.9629 48.2172 57.0455 48.1891 57.0989 48.1469C57.1523 48.1093 57.2009 48.0578 57.2495 47.9921C57.2349 47.9827 57.23 47.9827 57.2446 47.9921C57.2592 48.0015 57.2689 48.0062 57.2883 48.0156C57.3029 48.0249 57.3175 48.0296 57.332 48.0296C57.3466 48.0296 57.3417 48.0202 57.3272 48.0062C57.4972 47.9921 57.6186 47.9968 57.6915 48.0296C57.7643 48.0624 57.8129 48.1469 57.8372 48.2875C57.876 48.325 57.9052 48.3813 57.9246 48.447C57.9392 48.5126 58.0023 48.5548 58.1092 48.5689C58.0995 48.672 58.0655 48.7283 58.0072 48.7471C57.9489 48.7611 57.8906 48.794 57.842 48.8408C57.8275 48.9206 57.8177 48.9815 57.8129 49.0284C57.808 49.0753 57.8032 49.1175 57.7983 49.1597C57.7983 49.1972 57.7837 49.2394 57.7692 49.2816C57.7546 49.3238 57.7303 49.3801 57.6963 49.4504C57.7109 49.5208 57.6963 49.563 57.6429 49.5817C57.5895 49.5958 57.5312 49.6239 57.468 49.6661C57.468 49.7974 57.4583 49.8725 57.4389 49.8912C57.4195 49.9053 57.4 49.9334 57.3855 49.9756L57.1766 50.2101L57.2737 50.3976L57.1135 50.5149L57.2835 50.8103L57.7352 51.1761L58.0752 51.4949C57.9926 51.5746 57.9732 51.6168 58.0169 51.6309C58.0606 51.645 58.0995 51.6731 58.1383 51.72C58.08 51.8278 58.0509 51.9357 58.0412 52.0435C58.0315 52.1514 57.9878 52.217 57.9052 52.2499C57.9052 52.2639 57.8857 52.2827 57.8517 52.3014C57.8129 52.3202 57.774 52.339 57.7255 52.353C57.6769 52.3671 57.6235 52.3859 57.5749 52.4046C57.5215 52.4234 57.4777 52.4468 57.4486 52.4703C57.3126 52.4843 57.2106 52.4468 57.1523 52.353C57.094 52.2592 57.0455 52.1514 57.0115 52.0248L56.584 51.659L56.3752 51.4246C56.278 51.4152 56.1955 51.448 56.1323 51.5137C56.0692 51.5793 56.0303 51.6121 56.0255 51.6121C56.0109 51.6028 55.9866 51.6121 55.9526 51.6356C55.9186 51.659 55.8895 51.6825 55.8555 51.7106C55.8215 51.7388 55.7777 51.7716 55.7195 51.8091C55.632 51.8232 55.5689 51.8419 55.5349 51.8607C55.5009 51.8794 55.4329 51.9357 55.326 52.0295C55.2629 52.0764 55.1949 52.1233 55.1269 52.1655C55.0589 52.2077 55.0055 52.2358 54.9617 52.2546C54.8743 52.1936 54.8063 52.1748 54.7626 52.2077C54.7189 52.2405 54.6655 52.2639 54.5975 52.2921C54.4857 52.2686 54.4177 52.2733 54.4032 52.3014C54.3886 52.3296 54.3546 52.3718 54.306 52.4187C54.1992 52.4046 54.102 52.3952 54.0146 52.3905C53.9272 52.3905 53.8543 52.4187 53.796 52.489C53.7329 52.4984 53.6503 52.489 53.5532 52.4515C53.456 52.4187 53.3637 52.4234 53.2715 52.4609C53.2326 52.4515 53.1937 52.4327 53.1549 52.4046C53.116 52.3718 53.082 52.3436 53.0383 52.3155C52.9995 52.2874 52.9509 52.2686 52.9023 52.2499C52.8537 52.2358 52.7906 52.2358 52.7177 52.2592C52.6352 52.203 52.5429 52.1561 52.4312 52.1139C52.3243 52.0717 52.2612 52.0342 52.2563 52.0013C52.198 51.9873 52.1495 51.9591 52.1057 51.9263C52.062 51.8935 51.9843 51.8278 51.8677 51.7341L51.892 51.7575L51.9017 51.7434ZM52.7517 50.9463C52.7906 51.0072 52.8343 51.0541 52.8732 51.0776C52.912 51.101 52.9752 51.1198 53.0577 51.1385C53.1549 51.1714 53.2277 51.1995 53.2812 51.2323C53.3346 51.2651 53.3783 51.2886 53.4172 51.3167C53.456 51.3402 53.49 51.3636 53.5289 51.3824C53.5677 51.4011 53.6163 51.4105 53.6795 51.4105C53.7426 51.4011 53.8106 51.3683 53.8737 51.312C53.9369 51.2558 54.034 51.2229 54.1652 51.2229C54.1652 51.2464 54.1749 51.2558 54.1943 51.2464C54.2137 51.237 54.2429 51.2276 54.272 51.2183C54.3012 51.2089 54.3449 51.1948 54.3886 51.1807C54.4323 51.1667 54.476 51.1714 54.5149 51.1854C54.5975 51.176 54.6703 51.1338 54.7383 51.0541C54.8063 50.9744 54.8792 50.9228 54.952 50.89C54.9909 50.89 55.0249 50.8666 55.054 50.8197C55.0832 50.7728 55.1075 50.7165 55.122 50.6556C55.2435 50.6696 55.3163 50.6649 55.3455 50.6321C55.3746 50.5993 55.4183 50.5477 55.4863 50.468L55.3503 50.2898L55.0103 49.9709L54.816 49.6896L54.4857 49.2535L54.1457 48.9581L53.8543 48.7236L53.6357 48.3579C53.626 48.4048 53.592 48.4516 53.5337 48.5032C53.4706 48.5548 53.3832 48.5689 53.2715 48.5454C53.2326 48.6017 53.1986 48.6392 53.1792 48.6627C53.1597 48.6861 53.1403 48.7002 53.1306 48.7096C53.1209 48.7189 53.1063 48.7236 53.0966 48.733C53.082 48.7424 53.0723 48.7518 53.0675 48.7705C53.0189 48.8268 52.9752 48.8643 52.9412 48.8924C52.9023 48.9206 52.8683 48.944 52.8343 48.9628C52.7955 48.9815 52.7566 49.005 52.7177 49.0331C52.6789 49.0612 52.6303 49.1034 52.572 49.155C52.5234 49.1644 52.4992 49.1878 52.4992 49.2254C52.4992 49.2629 52.4652 49.3145 52.402 49.3801C52.3875 49.4645 52.3777 49.5348 52.3777 49.5864C52.3777 49.638 52.3777 49.6849 52.3632 49.7318C52.3535 49.7787 52.3437 49.8256 52.3243 49.8772C52.3097 49.9287 52.2806 49.9944 52.2417 50.0835C52.266 50.1632 52.3 50.2382 52.3437 50.3086C52.3874 50.3789 52.4409 50.4352 52.5089 50.4727C52.4603 50.5805 52.4506 50.6649 52.4846 50.7118C52.5186 50.7634 52.5915 50.8291 52.7032 50.9041L52.7517 50.9416V50.9463Z" fill="#AD7252"/>
<path d="M61.7188 51.5699L61.9373 51.1948L61.743 50.8759L61.7916 50.5008V50.1725L61.777 49.6802L61.8645 49.2206L61.9227 48.9721L61.7625 48.5266L61.8839 48.0202L61.9422 47.7482L61.8693 47.2887L61.8839 46.9605L61.9325 46.6557L61.845 46.1727V45.7507L61.7479 45.2911L61.7965 45.0192V44.63C61.811 44.4987 61.8305 44.4002 61.845 44.3345C61.8596 44.2689 61.8888 44.222 61.9325 44.1798C61.9665 44.1657 62.0053 44.1423 62.0587 44.1095C62.1122 44.0766 62.1656 44.0485 62.2239 44.0157C62.2822 43.9829 62.3307 43.9547 62.3696 43.9266C62.4085 43.8984 62.4328 43.8797 62.4425 43.875L63.0156 44.0297L63.273 43.9828L63.6762 43.936L64.2979 44.0063L64.7253 43.9594C64.7253 43.9922 64.735 44.0063 64.7593 44.011C64.7836 44.011 64.8176 44.0157 64.8565 44.0157C64.8953 44.0157 64.9439 44.0157 65.0022 44.0251C65.0605 44.0344 65.1139 44.0579 65.1625 44.0954C65.2353 44.0579 65.3373 44.0297 65.4588 44.011C65.585 43.9969 65.6919 44.0204 65.7793 44.0813C65.789 44.0907 65.823 44.1188 65.8813 44.1751C65.9396 44.2314 66.0319 44.2595 66.1533 44.2689C66.2116 44.3298 66.2748 44.3955 66.3525 44.4611C66.4302 44.5268 66.4545 44.6112 66.4302 44.7144C66.4788 44.7144 66.537 44.7331 66.6002 44.7753C66.6633 44.8175 66.741 44.9019 66.8333 45.0332C66.8236 45.0473 66.8333 45.0989 66.8576 45.1786C66.8819 45.263 66.9159 45.3474 66.9548 45.4412C66.945 45.4177 66.9548 45.4177 66.9693 45.4412C66.9839 45.4646 67.0033 45.4928 67.0228 45.5303C67.0422 45.5678 67.0616 45.5959 67.081 45.6241C67.1005 45.6522 67.1199 45.6663 67.1345 45.6663C67.1345 45.8163 67.1248 45.9335 67.1005 46.0179C67.0762 46.1024 67.115 46.1727 67.2073 46.229C67.1442 46.2759 67.1005 46.3509 67.0859 46.454C67.0713 46.5572 67.0568 46.6416 67.0519 46.7119C67.0325 46.7495 67.013 46.787 66.9839 46.8245C66.9548 46.862 66.9208 46.8854 66.8819 46.8995C66.8673 47.0167 66.8528 47.1058 66.8479 47.1715C66.8382 47.2324 66.7848 47.2559 66.6779 47.2418C66.7022 47.2981 66.707 47.3356 66.6925 47.359C66.6779 47.3825 66.6536 47.4013 66.6245 47.4106C66.5953 47.4247 66.5662 47.4341 66.5273 47.4528C66.4885 47.4669 66.4642 47.495 66.4496 47.5372C66.4253 47.6404 66.3913 47.7014 66.3476 47.7248C66.3039 47.7482 66.2602 47.7764 66.2213 47.8092C66.0999 47.8467 65.9979 47.8749 65.925 47.8936C65.8473 47.9077 65.7745 47.9077 65.7016 47.8936C65.7648 47.9405 65.823 47.9733 65.8668 47.9874C65.9105 48.0015 65.9493 48.0155 65.9882 48.0296C66.0222 48.039 66.0562 48.053 66.0853 48.0718C66.1145 48.0859 66.1485 48.114 66.1873 48.1562C66.197 48.1703 66.2262 48.189 66.2748 48.2078C66.3233 48.2265 66.3816 48.2453 66.4496 48.2687C66.5176 48.2922 66.5905 48.3016 66.6633 48.3156C66.7362 48.325 66.7993 48.3344 66.8479 48.3344C66.8333 48.3578 66.8333 48.4047 66.8625 48.4751C66.8868 48.5454 66.9208 48.6204 66.9693 48.6908C67.0179 48.7658 67.0762 48.8361 67.1393 48.9018C67.2025 48.9674 67.2656 49.0049 67.3239 49.0143C67.2656 49.1081 67.2462 49.1878 67.2656 49.2488C67.285 49.3097 67.3336 49.3519 67.4259 49.366C67.4356 49.4457 67.4356 49.5067 67.4259 49.5489C67.4162 49.5911 67.4113 49.6333 67.4065 49.6661C67.4065 49.6989 67.4065 49.7364 67.4065 49.7646C67.4065 49.7927 67.4259 49.8396 67.4502 49.8959C67.3919 49.9803 67.3628 50.06 67.353 50.135C67.3433 50.2101 67.3433 50.271 67.353 50.3179C67.3676 50.3554 67.3725 50.4023 67.3628 50.4539C67.353 50.5055 67.3433 50.5524 67.319 50.5993C67.2996 50.6461 67.2802 50.6837 67.2656 50.7165C67.251 50.7493 67.2462 50.7681 67.251 50.7774C67.1879 50.8103 67.1442 50.8618 67.115 50.9416C67.0908 51.0213 67.0616 51.1197 67.0276 51.2464C66.9888 51.2323 66.9548 51.2464 66.9256 51.2979C66.8965 51.3495 66.8528 51.4339 66.7993 51.5511C66.7362 51.6121 66.6682 51.659 66.605 51.6871C66.5419 51.7153 66.5273 51.72 66.571 51.7059C66.4982 51.7434 66.4448 51.7715 66.4108 51.7903C66.3768 51.8044 66.3573 51.8231 66.3428 51.8372C66.3282 51.8513 66.3185 51.8747 66.3039 51.8981C66.2893 51.9216 66.2699 51.9544 66.2359 52.006C66.163 51.9826 66.1096 51.9779 66.0756 51.9872C66.0416 52.0013 66.0173 52.0107 66.0028 52.0248C65.9882 52.0388 65.9736 52.0482 65.959 52.0529C65.9445 52.0576 65.9299 52.0529 65.9056 52.0201C65.7939 52.1045 65.7113 52.1607 65.6628 52.1842C65.6142 52.2076 65.5559 52.1748 65.4928 52.0904C65.381 52.1936 65.2985 52.2545 65.245 52.278C65.1916 52.3014 65.1188 52.2686 65.0313 52.1842C64.9439 52.2451 64.8565 52.292 64.7836 52.3249C64.7108 52.3577 64.6136 52.3577 64.497 52.3249L64.191 52.2076L63.7879 52.3249L63.3022 52.217L62.8748 52.2311L62.5105 52.2076C62.4716 52.2451 62.4376 52.2639 62.4133 52.2592C62.389 52.2545 62.3648 52.2451 62.3405 52.2217C62.3162 52.1983 62.287 52.1842 62.253 52.1748C62.219 52.1607 62.1802 52.1607 62.1316 52.1701C62.1073 52.0904 62.083 52.0341 62.0539 51.9919C62.0248 51.9544 61.9956 51.9169 61.9665 51.8794C61.9373 51.8419 61.913 51.8091 61.8888 51.7715C61.8645 51.734 61.8499 51.6871 61.8402 51.6262L61.7188 51.5699ZM63.1905 51.1479L63.5305 51.1948L63.9822 51.1713L64.4339 51.1948C64.531 51.1854 64.6282 51.176 64.7205 51.1573C64.8128 51.1432 64.905 51.1057 64.9925 51.0494C65.0265 51.0494 65.0508 51.0494 65.0653 51.0588C65.0799 51.0682 65.0993 51.0682 65.1188 51.0682C65.1382 51.0682 65.1722 51.0588 65.2159 51.0447C65.2596 51.0307 65.3276 50.9931 65.415 50.9369C65.4053 50.9697 65.415 50.9838 65.4345 50.9885C65.4539 50.9885 65.4733 50.9885 65.4928 50.9744C65.5122 50.965 65.5316 50.9462 65.5462 50.9228C65.5608 50.8994 65.5559 50.8806 65.5316 50.8618C65.6628 50.8056 65.7453 50.7681 65.7793 50.7399C65.8133 50.7118 65.8425 50.693 65.857 50.6743C65.9445 50.6274 66.0125 50.5571 66.0562 50.4586C66.0999 50.3601 66.0805 50.2804 66.0028 50.2194C66.0659 50.196 66.1096 50.1538 66.1242 50.0881C66.1388 50.0225 66.1096 49.9522 66.0368 49.8631C66.0756 49.8255 66.0999 49.7693 66.1048 49.6942C66.1048 49.6192 66.0805 49.5442 66.0125 49.4645C66.0513 49.4504 66.0659 49.4035 66.0562 49.3285C66.0416 49.2535 66.0319 49.2113 66.0125 49.1925C65.993 49.0518 65.9542 48.9674 65.891 48.944C65.8279 48.9205 65.7453 48.8783 65.6482 48.8127C65.5608 48.8268 65.4879 48.8174 65.4345 48.7845C65.381 48.747 65.3616 48.7283 65.381 48.7189C65.3179 48.6626 65.2548 48.6298 65.2062 48.6111C65.1528 48.597 65.1042 48.5876 65.0556 48.5876C65.007 48.5876 64.9585 48.5876 64.9148 48.6017C64.871 48.6157 64.8322 48.6017 64.7982 48.5876C64.735 48.5032 64.6719 48.4563 64.6088 48.4563C64.5456 48.4563 64.4873 48.4704 64.4339 48.4938L63.9725 48.5313L63.4382 48.522L63.1468 48.461L63.1127 48.8361V49.1878L63.0885 49.6239L62.967 50.1163L63.1273 50.3882L63.0788 50.8243L63.069 51.1526L63.1905 51.1291V51.1479ZM63.1273 47.4012L63.3945 47.4106L63.8073 47.3872L64.4048 47.4106C64.4388 47.4106 64.4776 47.4059 64.5262 47.3919C64.5748 47.3778 64.6282 47.3637 64.6768 47.345C64.7302 47.3262 64.7788 47.3075 64.8273 47.2981C64.8759 47.2887 64.9148 47.2793 64.9488 47.2793C64.9876 47.2934 65.0362 47.2793 65.0945 47.2371C65.1528 47.1949 65.1916 47.1809 65.2159 47.1949C65.2402 47.2184 65.2548 47.2278 65.2596 47.2184C65.2645 47.209 65.2693 47.1949 65.2742 47.1715C65.2742 47.148 65.2888 47.1246 65.2985 47.1011C65.3082 47.0777 65.3373 47.0636 65.3762 47.0636C65.4393 47.0308 65.4928 47.0027 65.5268 46.9745C65.5656 46.9464 65.5948 46.9183 65.6239 46.8854C65.653 46.8526 65.6773 46.8245 65.7016 46.7917C65.7259 46.7588 65.7599 46.726 65.7988 46.6838C65.8473 46.6697 65.8716 46.6369 65.8765 46.59C65.8813 46.5431 65.8765 46.4915 65.8619 46.4306C65.8522 46.3696 65.8328 46.3134 65.8133 46.2477C65.7939 46.1821 65.7842 46.1305 65.7842 46.0836C65.823 46.0461 65.8473 45.9711 65.857 45.8679C65.8668 45.76 65.8133 45.6241 65.6968 45.4506C65.7308 45.4646 65.7502 45.4787 65.755 45.4881C65.7648 45.4974 65.7648 45.4975 65.7599 45.4975C65.7599 45.4975 65.7502 45.4928 65.7405 45.4787C65.7308 45.4693 65.7308 45.4506 65.7405 45.4271C65.619 45.3662 65.5268 45.3099 65.4588 45.2677C65.3956 45.2255 65.3325 45.1504 65.2742 45.0379L65.0168 45.1083H64.7982L64.5796 45.0848L64.0793 45.0379L63.5548 45.1317L63.1516 45.0614L63.1662 45.3802L63.0059 45.8257L63.1273 46.1914V46.5431L63.0545 46.9417L63.0448 47.3872H63.103L63.1273 47.4012Z" fill="#AD7252"/>
<path d="M68.4956 51.8731C68.5101 51.8169 68.5101 51.7747 68.4956 51.7372C68.481 51.6996 68.4616 51.6715 68.4421 51.6481C68.4227 51.6246 68.4081 51.6105 68.3936 51.6012C68.379 51.5918 68.3936 51.5824 68.4227 51.5683C68.311 51.5074 68.243 51.423 68.2236 51.3151C68.2041 51.2073 68.2138 51.1369 68.2527 51.0994C68.1604 51.0197 68.1167 50.9353 68.1119 50.8462C68.107 50.7571 68.1361 50.6915 68.1896 50.654C68.1799 50.5274 68.1896 50.4289 68.1993 50.3539C68.209 50.2788 68.1993 50.1897 68.1507 50.0772C68.1604 50.0866 68.175 50.0772 68.1944 50.0584C68.2139 50.0397 68.2333 50.0162 68.2479 49.9881C68.2624 49.96 68.277 49.9365 68.2916 49.9178C68.3013 49.899 68.311 49.8943 68.311 49.899C68.277 49.8662 68.2624 49.8334 68.2673 49.8005C68.2673 49.763 68.2819 49.7255 68.3013 49.6833C68.3207 49.6411 68.3401 49.5989 68.3596 49.552C68.379 49.5098 68.3887 49.4629 68.3887 49.416C68.3644 49.4395 68.3693 49.416 68.3984 49.3504C68.4276 49.2847 68.5053 49.2238 68.617 49.1675C68.6558 49.1534 68.6947 49.1487 68.7287 49.1534C68.7627 49.1628 68.8113 49.144 68.8744 49.1065C68.8987 49.0456 68.9376 48.9799 68.9958 48.919C69.0541 48.858 69.0881 48.7971 69.1027 48.7408C69.1513 48.7736 69.1901 48.7924 69.2241 48.7971C69.2581 48.8064 69.2873 48.8111 69.3213 48.8111C69.3553 48.8111 69.3893 48.8111 69.4281 48.8064C69.467 48.8064 69.5253 48.8064 69.5981 48.8252C69.6079 48.8158 69.637 48.7924 69.6904 48.7502C69.7439 48.708 69.8167 48.6751 69.9139 48.6517C69.9527 48.6751 70.011 48.6704 70.079 48.6376C70.147 48.6048 70.215 48.6189 70.2781 48.6751C70.4579 48.6658 70.589 48.6704 70.6716 48.6798C70.7541 48.6892 70.8804 48.6892 71.0407 48.6751C71.0893 48.7126 71.1621 48.7314 71.2544 48.7267C71.3467 48.7267 71.4293 48.7361 71.5021 48.7689L71.5604 48.2531C71.5459 48.2156 71.541 48.1593 71.541 48.089C71.541 48.0187 71.5361 47.953 71.5119 47.8874C71.4876 47.8076 71.4584 47.7467 71.4196 47.7045C71.3807 47.6623 71.3516 47.6295 71.3273 47.6107C71.303 47.5919 71.2884 47.5732 71.2787 47.5638C71.269 47.5544 71.2787 47.5357 71.303 47.5122C71.2059 47.4044 71.1281 47.3387 71.0699 47.32C71.0116 47.3012 70.9581 47.2731 70.8999 47.2309C70.8124 47.2309 70.6959 47.2168 70.5599 47.184C70.419 47.1512 70.3024 47.1136 70.2053 47.0668C70.1907 47.0996 70.1664 47.123 70.1324 47.1512C70.0984 47.1793 70.0644 47.198 70.0256 47.2215C69.9867 47.2543 69.9381 47.2778 69.8896 47.3059C69.7536 47.32 69.6467 47.3293 69.5787 47.3247C69.5107 47.3247 69.4816 47.3715 69.501 47.47L69.4767 47.5263L69.3699 47.3856C69.3067 47.395 69.2436 47.4278 69.1853 47.4841C69.127 47.5404 69.0736 47.5779 69.025 47.5966C68.9424 47.6107 68.8696 47.5732 68.8016 47.4841C68.7336 47.395 68.6753 47.334 68.6364 47.3012C68.6121 47.2449 68.5781 47.1934 68.5393 47.1465C68.5004 47.0996 68.5004 47.0245 68.5393 46.9214C68.6024 46.8839 68.651 46.8135 68.685 46.7104C68.719 46.6072 68.7676 46.5416 68.8307 46.5087C68.8453 46.4618 68.8744 46.429 68.9084 46.415C68.9473 46.4009 68.9861 46.3915 69.0347 46.3868C69.0833 46.3821 69.1367 46.3821 69.195 46.3821C69.2533 46.3821 69.3067 46.3728 69.365 46.3446C69.4767 46.3212 69.5739 46.293 69.6564 46.2602C69.739 46.2274 69.8313 46.1711 69.9381 46.082C70.045 46.1664 70.1373 46.2086 70.2199 46.2039C70.3024 46.2039 70.351 46.1852 70.3656 46.1617C70.4627 46.1711 70.5501 46.1805 70.6279 46.1899C70.7056 46.1993 70.8027 46.2133 70.9241 46.2321C70.963 46.1993 70.997 46.1852 71.0261 46.1899C71.0553 46.1946 71.0796 46.2039 71.1039 46.2274C71.1281 46.2462 71.1524 46.2696 71.1816 46.293C71.2107 46.3165 71.2496 46.3306 71.2981 46.3399C71.3953 46.293 71.4536 46.2837 71.473 46.3165C71.4924 46.3493 71.5459 46.4009 71.6381 46.4712C71.6867 46.4478 71.7256 46.4431 71.745 46.4525C71.7693 46.4665 71.7936 46.4806 71.813 46.5041C71.8324 46.5275 71.8616 46.5509 71.8907 46.5791C71.9199 46.6072 71.9684 46.626 72.0267 46.6307C72.0899 46.6635 72.1336 46.701 72.1481 46.7432C72.1627 46.7854 72.1821 46.8135 72.2064 46.8323C72.221 46.8323 72.2404 46.8557 72.2599 46.8979C72.2793 46.9401 72.3376 47.0152 72.4347 47.1277C72.459 47.1371 72.459 47.1558 72.4347 47.1934C72.4104 47.2309 72.4153 47.2778 72.4493 47.3387C72.459 47.4091 72.4687 47.4606 72.4881 47.4982C72.5027 47.5357 72.5173 47.5685 72.5221 47.5966C72.5319 47.6295 72.5367 47.6623 72.5367 47.6951C72.5367 47.7279 72.5221 47.7748 72.4881 47.8311C72.5027 47.8874 72.5221 47.9296 72.5416 47.9671C72.561 48.0046 72.6144 48.0702 72.7067 48.1734C72.7164 48.1875 72.7164 48.2156 72.7067 48.2578C72.697 48.2953 72.6873 48.3328 72.6679 48.3703C72.6484 48.4078 72.6339 48.436 72.6144 48.4641C72.595 48.4923 72.5804 48.4969 72.5707 48.4829L72.6679 48.9752L72.6096 49.3175L72.6436 49.7865L72.5707 50.1991L72.6581 50.7759L72.5707 51.0713C72.6339 51.1323 72.6727 51.1885 72.6824 51.2401C72.6921 51.2917 72.6921 51.3433 72.6824 51.3995L72.7796 51.2682C72.9641 51.348 73.0856 51.4089 73.1439 51.4558C73.2021 51.5027 73.2313 51.5965 73.241 51.7372C73.275 51.7981 73.2896 51.8544 73.2847 51.9013C73.2847 51.9482 73.2701 51.9904 73.2556 52.0326C73.2361 52.0701 73.2216 52.1123 73.2021 52.1639C73.1827 52.2108 73.173 52.267 73.173 52.328C73.0856 52.3139 73.003 52.3139 72.9301 52.3327C72.8573 52.3514 72.7601 52.3374 72.6387 52.2905C72.527 52.3467 72.4347 52.3421 72.3667 52.2858C72.2987 52.2295 72.1919 52.1779 72.0559 52.1404C71.9927 52.1264 71.949 52.0888 71.9296 52.0373C71.9101 51.981 71.8567 51.906 71.779 51.8122C71.7207 51.8122 71.677 51.8262 71.6381 51.8591C71.5993 51.8919 71.5701 51.9247 71.541 51.9575C71.5119 51.9904 71.4827 52.0279 71.4536 52.0701C71.4244 52.1076 71.3904 52.1404 71.3516 52.1639C71.2787 52.1639 71.2253 52.1732 71.1864 52.192C71.1524 52.2108 71.0747 52.2389 70.963 52.2811C70.9533 52.2577 70.895 52.2623 70.7784 52.2999C70.6667 52.3374 70.5647 52.3608 70.487 52.3749C70.3996 52.4077 70.3267 52.4265 70.2733 52.4358C70.2199 52.4452 70.1859 52.4077 70.1713 52.328C70.0839 52.3186 70.0061 52.3374 69.9479 52.3749C69.8896 52.4124 69.807 52.4077 69.7099 52.3514C69.671 52.3749 69.6176 52.3655 69.5496 52.3233C69.4864 52.2811 69.399 52.2436 69.2921 52.2108C69.2533 52.1732 69.2047 52.1451 69.1513 52.131C69.0979 52.117 69.025 52.0888 68.9278 52.0466C68.8647 52.0607 68.8161 52.0513 68.787 52.0185C68.7579 51.9857 68.685 51.9247 68.5733 51.8356L68.4616 51.8731H68.4956ZM69.5544 51.1791C69.5544 51.1791 69.569 51.2167 69.6467 51.2495C69.7244 51.2823 69.7681 51.3339 69.773 51.4136C69.8847 51.4136 69.9673 51.4042 70.0159 51.3855C70.0644 51.3667 70.1179 51.3198 70.1761 51.2495C70.215 51.2495 70.2587 51.2542 70.3024 51.2682C70.3461 51.2776 70.3899 51.2917 70.4384 51.2964C70.487 51.3011 70.5356 51.3057 70.589 51.3011C70.6473 51.3011 70.7056 51.2776 70.7736 51.2354C70.9096 51.2026 70.9921 51.1791 71.0164 51.151C71.099 51.1135 71.167 51.0854 71.2253 51.0666C71.2836 51.0525 71.3273 51.0385 71.3661 51.0244C71.405 51.0103 71.4341 50.9963 71.4584 50.9775C71.4827 50.9588 71.5119 50.9165 71.5459 50.8556L71.4973 50.3257L71.4584 49.8427C71.371 49.7724 71.2884 49.7349 71.2156 49.7302C71.1427 49.7302 71.031 49.7114 70.8853 49.688C70.8659 49.6505 70.8124 49.6317 70.7201 49.6364C70.6279 49.6364 70.5356 49.6177 70.4481 49.5708C70.3364 49.627 70.2393 49.6645 70.1664 49.688C70.0936 49.7114 70.011 49.7302 69.9236 49.7443C69.909 49.7208 69.8799 49.7067 69.8459 49.6974C69.8119 49.688 69.773 49.688 69.7439 49.6974C69.7099 49.7067 69.6856 49.7208 69.6661 49.7396C69.6467 49.7583 69.6419 49.7818 69.6613 49.8052C69.6467 49.8146 69.6273 49.8287 69.603 49.8521C69.5787 49.8756 69.5544 49.899 69.5301 49.9225C69.5059 49.9459 69.4816 49.9693 69.4621 49.9881C69.4427 50.0069 69.4184 50.0115 69.3941 50.0069C69.3601 50.0913 69.3504 50.185 69.3601 50.2882C69.3699 50.3914 69.3456 50.457 69.3019 50.4898C69.3261 50.5742 69.3359 50.6493 69.3359 50.7149C69.3359 50.7806 69.3359 50.8321 69.3407 50.879C69.3407 50.9259 69.3601 50.9681 69.3844 51.001C69.4087 51.0385 69.4524 51.076 69.5204 51.1229L69.569 51.1698L69.5544 51.1791Z" fill="#AD7252"/>
<path d="M74.4814 51.7331L74.3357 51.508L74.3017 50.9922L74.4717 50.7812L74.3163 50.1951L74.4863 49.8903L74.4377 49.6652L74.462 49.2526L74.3746 48.8774L74.3892 48.3241L74.5252 48.1365L74.5106 47.5832L74.3746 47.2315L74.3503 46.9127L74.3989 46.5844L74.4329 46.2327L74.2969 45.8435L74.394 45.4074L74.3552 45.0651L74.3212 44.69L74.2969 44.3852C74.36 44.2352 74.4086 44.1367 74.4426 44.0804C74.4766 44.0241 74.5009 43.9632 74.53 43.8928C74.666 43.86 74.7729 43.8272 74.8409 43.7944C74.9089 43.7569 74.938 43.7569 74.9186 43.7897C75.074 43.7662 75.1955 43.7662 75.2877 43.785C75.38 43.8038 75.4043 43.8319 75.3557 43.8741C75.4043 43.9069 75.4577 43.9585 75.5209 44.0288C75.584 44.0992 75.6035 44.1789 75.5889 44.2633L75.7103 44.7088L75.5403 45.1308L75.6472 45.5903L75.6132 45.8857L75.5014 46.2374L75.72 46.7063L75.6472 47.1284L75.55 47.5035L75.6569 47.8786L75.6423 48.3241L75.9483 48.0896L76.1572 47.8177L76.4875 47.3722L76.8032 47.3019L76.9586 46.9736L77.3229 46.5375L77.7017 46.3593C77.7163 46.2796 77.7212 46.2468 77.7115 46.2515C77.7017 46.2609 77.7455 46.2609 77.8329 46.2515L77.8912 46.1577L78.0466 46.2749L78.0126 46.1905C78.1 46.228 78.1826 46.2515 78.2603 46.2515C78.338 46.2515 78.3672 46.2421 78.3526 46.228C78.3769 46.2515 78.406 46.2843 78.44 46.3218C78.474 46.3593 78.4983 46.4015 78.5177 46.4437C78.5372 46.4859 78.5517 46.5282 78.5566 46.5657C78.5566 46.6032 78.5469 46.6266 78.5129 46.636C78.5032 46.6735 78.5032 46.711 78.5129 46.7439C78.5226 46.7767 78.5226 46.8095 78.5177 46.8517C78.5129 46.8939 78.5032 46.9361 78.4886 46.983C78.474 47.0299 78.4352 47.0862 78.3817 47.1471L78.1632 47.2784L77.7746 47.6301L77.6677 47.8646L77.3763 48.2163L76.9392 48.4648L76.6332 48.6899L76.842 49.0181L77.1092 49.3604L77.3666 49.7355L77.6969 49.9137L77.9057 50.242L78.1 50.5608L78.3186 50.95L78.5469 51.3392L78.6586 51.5643L78.6732 51.6815C78.712 51.7191 78.7557 51.7613 78.7946 51.7988C78.8335 51.8363 78.8772 51.841 78.916 51.8081C78.8577 51.8785 78.814 51.9394 78.7897 51.991C78.7655 52.0426 78.7363 52.0848 78.7169 52.1129C78.6975 52.1458 78.6732 52.1739 78.6489 52.202C78.6246 52.2302 78.5906 52.2536 78.542 52.2771C78.4837 52.338 78.4497 52.3755 78.4303 52.3896C78.4157 52.4037 78.3963 52.3896 78.372 52.3474C78.2409 52.3708 78.1243 52.3708 78.0272 52.3521C77.9252 52.3333 77.8037 52.2677 77.6532 52.1598L77.5803 51.7472L77.2403 51.4283L76.9829 51.1563L76.876 50.6874L76.5846 50.4858L76.4875 50.1904L76.2203 49.8481L75.8415 49.5198L75.7055 49.8387L75.6909 50.1576L75.5792 50.5093L75.652 51.0626L75.5063 51.3439L75.7249 51.8972C75.686 52.0004 75.652 52.0707 75.6277 52.1082C75.6035 52.1458 75.516 52.1927 75.3606 52.2489C75.3412 52.2255 75.2975 52.2395 75.2197 52.2864C75.142 52.3333 75.0643 52.3427 74.9817 52.324C74.9332 52.3568 74.8943 52.3708 74.8652 52.3708C74.836 52.3708 74.8069 52.3615 74.7777 52.3474C74.7486 52.3333 74.7146 52.3146 74.6709 52.2958C74.6272 52.2771 74.564 52.2583 74.4814 52.2442C74.4329 52.1833 74.4037 52.127 74.3989 52.0848C74.3892 52.0426 74.3989 51.9535 74.4086 51.8222L74.4814 51.7378V51.7331Z" fill="#AD7252"/>
<path d="M79.6143 51.2515C79.6775 51.1437 79.7017 51.0499 79.6872 50.9796C79.6677 50.9092 79.6337 50.8295 79.5755 50.7451C79.5997 50.7076 79.6095 50.656 79.6046 50.5904C79.6046 50.5294 79.5803 50.4215 79.5366 50.2715L79.4395 49.9292L79.5755 49.4697V49.0476L79.6143 48.6819L79.556 48.2833C79.5706 48.2505 79.5755 48.213 79.5755 48.1708C79.5755 48.1286 79.5609 48.0864 79.5512 48.0488C79.5415 48.0113 79.522 47.9597 79.4977 47.8941C79.5366 47.8097 79.5657 47.7112 79.5755 47.5987C79.59 47.4908 79.5997 47.4205 79.6192 47.3877C79.7066 47.3736 79.76 47.3361 79.7697 47.2751C79.7843 47.2142 79.8183 47.1345 79.8863 47.0219C79.8523 47.0594 79.8572 47.05 79.8912 46.9938C79.93 46.9328 80.0175 46.8484 80.1632 46.7312C80.1632 46.7546 80.1632 46.7593 80.1777 46.7406C80.1875 46.7265 80.1972 46.7077 80.2069 46.689C80.2166 46.6702 80.2312 46.6515 80.2506 46.6327C80.2652 46.614 80.2846 46.6093 80.2992 46.6139C80.372 46.5108 80.4206 46.4545 80.4497 46.4451C80.4789 46.4358 80.5566 46.4451 80.6877 46.4873C80.7217 46.4639 80.7606 46.4264 80.8043 46.3701C80.848 46.3138 80.9597 46.2529 81.1395 46.1825C81.1297 46.1825 81.1395 46.1825 81.1686 46.1919C81.1977 46.2013 81.2317 46.206 81.2755 46.2154C81.3192 46.2248 81.3629 46.2294 81.4115 46.2341C81.46 46.2388 81.494 46.2388 81.528 46.2388C81.562 46.2388 81.5863 46.2341 81.6155 46.2201C81.6397 46.2107 81.664 46.2013 81.6883 46.1966C81.7126 46.1966 81.7466 46.1919 81.7855 46.1919C81.8243 46.1919 81.8777 46.2013 81.9457 46.2294C82.0186 46.1685 82.106 46.1403 82.208 46.145C82.31 46.1497 82.3829 46.1872 82.4315 46.2529C82.4703 46.2201 82.5043 46.206 82.5286 46.2107C82.5529 46.2107 82.5772 46.2201 82.6015 46.2341C82.6257 46.2435 82.65 46.2576 82.6743 46.2716C82.6986 46.281 82.7375 46.281 82.786 46.267C82.8589 46.2529 82.9317 46.2623 82.9997 46.2951C83.0677 46.3326 83.1697 46.3889 83.296 46.478C83.3203 46.5342 83.3543 46.5624 83.398 46.5717C83.4418 46.5811 83.4952 46.6139 83.5486 46.6796C83.5972 46.7499 83.636 46.8109 83.67 46.8625C83.704 46.9141 83.704 46.9469 83.6846 46.9609C83.7477 46.9609 83.7915 46.9844 83.806 47.0313C83.8206 47.0782 83.8303 47.1438 83.8303 47.2329C83.8886 47.2798 83.9226 47.3267 83.9372 47.3783C83.9518 47.4299 83.9615 47.4721 83.9615 47.5096C83.9615 47.5471 83.9615 47.5752 83.9469 47.5987C83.9372 47.6221 83.9372 47.6268 83.9469 47.6081C83.9566 47.7722 83.9663 47.8988 83.976 47.9879C83.9858 48.077 83.9857 48.1614 83.9712 48.2411C83.9857 48.2552 83.9906 48.2692 83.9906 48.2786C83.9906 48.288 83.9906 48.2974 83.9906 48.3161C83.9906 48.3302 84.0052 48.3536 84.0198 48.3865C84.0343 48.4193 84.0683 48.4709 84.1169 48.5412C84.0683 48.5881 84.0343 48.6209 84.0198 48.6397C84.0052 48.6584 83.9906 48.6772 83.9809 48.6959C83.9712 48.7147 83.9615 48.7428 83.9518 48.7803C83.942 48.8179 83.9178 48.8741 83.8838 48.9492C83.8838 49.0195 83.8595 49.0804 83.8109 49.1273C83.7623 49.1742 83.7623 49.1789 83.8109 49.1414C83.7526 49.2024 83.7138 49.2586 83.6943 49.3008C83.6749 49.343 83.6603 49.3806 83.6457 49.4087C83.6312 49.4368 83.6215 49.465 83.6166 49.4931C83.6069 49.5212 83.5923 49.5494 83.568 49.5822C83.4466 49.5963 83.3737 49.6291 83.3495 49.676C83.3252 49.7229 83.2863 49.7885 83.2377 49.8776C83.1989 49.8448 83.1503 49.8307 83.1017 49.8307C83.0532 49.8307 83.0046 49.8307 82.956 49.8401C82.9075 49.8495 82.8637 49.8495 82.82 49.8495C82.7763 49.8495 82.7472 49.8307 82.7229 49.7932C82.6597 49.8073 82.5723 49.8401 82.4655 49.887C82.3586 49.9339 82.3052 49.9808 82.2955 50.0277C82.2323 50.037 82.1837 50.0277 82.1497 50.0136C82.1157 49.9995 82.0866 49.9808 82.0526 49.9573C82.0186 49.9339 81.9846 49.9151 81.9457 49.9011C81.9069 49.887 81.8486 49.8776 81.7757 49.8776C81.7272 49.9386 81.664 49.962 81.5815 49.9433C81.4989 49.9245 81.4406 49.9104 81.3969 49.9011C81.358 49.8776 81.2949 49.8823 81.2075 49.9104C81.12 49.9433 81.0472 49.9386 80.984 49.9011C80.9597 49.887 80.916 49.887 80.8577 49.9057C80.7995 49.9245 80.7169 49.9433 80.6197 49.9573L80.7655 50.3934C80.7266 50.5247 80.6975 50.6138 80.678 50.656C80.6586 50.6982 80.678 50.7498 80.7266 50.8014C80.7169 50.8154 80.7266 50.8389 80.7557 50.8717C80.7849 50.9045 80.8189 50.9374 80.8577 50.9702C80.8966 51.0077 80.9355 51.0405 80.9646 51.0686C80.9986 51.1015 81.018 51.1202 81.0229 51.1249C81.0229 51.1484 81.0375 51.1718 81.0715 51.1953C81.1055 51.2187 81.1395 51.2375 81.1832 51.2562C81.222 51.2703 81.2657 51.2797 81.3046 51.2844C81.3435 51.289 81.3775 51.2844 81.4017 51.2656C81.4163 51.275 81.4503 51.289 81.494 51.3078C81.5377 51.3266 81.5912 51.3453 81.6446 51.3688C81.7029 51.3875 81.7563 51.4063 81.8097 51.4203C81.8632 51.4344 81.9117 51.4438 81.9506 51.4438C81.9992 51.4438 82.072 51.4063 82.1643 51.3359C82.2566 51.2656 82.3829 51.214 82.5335 51.1812C82.6209 51.1718 82.7083 51.1718 82.7909 51.1718C82.8735 51.1718 82.9026 51.1624 82.888 51.1484C82.9852 51.139 83.0823 51.1249 83.1746 51.1015C83.2669 51.078 83.33 51.0827 83.364 51.1109C83.4515 51.078 83.5389 51.0546 83.6118 51.0264C83.6846 50.9983 83.7575 51.0124 83.8255 51.0499C83.8255 51.1109 83.8352 51.1859 83.8497 51.275C83.8643 51.3594 83.874 51.425 83.874 51.4625C83.908 51.5001 83.9129 51.5469 83.8983 51.5985C83.8837 51.6501 83.8643 51.7111 83.8497 51.7814C83.738 51.8893 83.6506 51.9596 83.5923 51.9924C83.534 52.0252 83.4563 52.0299 83.3592 52.0159C83.3106 52.0956 83.2572 52.1331 83.194 52.1331C83.1309 52.1331 83.092 52.1331 83.0775 52.1425C82.9317 52.2034 82.8249 52.2409 82.7569 52.2503C82.6889 52.2597 82.6598 52.2831 82.6792 52.3207C82.6306 52.2972 82.5772 52.2831 82.5189 52.2831C82.4606 52.2831 82.412 52.2831 82.3683 52.2972C82.3246 52.3113 82.2857 52.3066 82.2615 52.3019C82.2323 52.3019 82.2177 52.2785 82.2177 52.2503C82.1935 52.3066 82.1595 52.3394 82.1157 52.3488C82.072 52.3629 82.0283 52.3629 81.9895 52.3629C81.9506 52.3629 81.9117 52.3582 81.8826 52.3582C81.8535 52.3582 81.834 52.3722 81.834 52.4051C81.7709 52.3675 81.6883 52.3347 81.5912 52.316C81.494 52.2972 81.4406 52.2972 81.4309 52.3207C81.3435 52.3207 81.222 52.316 81.0763 52.3019C80.9306 52.2878 80.814 52.2644 80.7217 52.2269C80.6732 52.2409 80.6295 52.2128 80.5857 52.1425C80.5469 52.0721 80.4789 52.0159 80.3769 51.9783C80.3526 51.9549 80.3235 51.9127 80.2943 51.8564C80.2603 51.8002 80.2215 51.7626 80.1729 51.7439C80.0417 51.7064 79.9592 51.6501 79.9252 51.5845C79.8863 51.5188 79.9009 51.4719 79.9689 51.4485C79.896 51.3922 79.8329 51.3453 79.7746 51.3031C79.7163 51.2609 79.6823 51.2093 79.6677 51.1437L79.6095 51.2515H79.6143ZM80.7946 48.9163C80.7606 48.9163 80.7946 48.9116 80.8917 48.8976C80.9889 48.8882 81.1055 48.907 81.2463 48.9632C81.2803 48.9726 81.3046 48.9773 81.324 48.9867C81.3435 48.996 81.3677 49.0007 81.392 49.0101C81.4163 49.0195 81.4406 49.0242 81.4697 49.0289C81.4989 49.0289 81.5426 49.0289 81.596 49.0101C81.6203 48.9867 81.6446 48.9773 81.6737 48.982C81.7029 48.982 81.7369 48.996 81.7855 49.0054C81.834 49.0148 81.8826 49.0289 81.9506 49.0429C82.0137 49.0523 82.0915 49.057 82.1789 49.0476C82.2177 49.0336 82.2517 49.0195 82.276 49.0101C82.3003 49.0007 82.3246 48.9914 82.3537 48.982C82.3829 48.9726 82.4169 48.9492 82.4509 48.9257C82.4849 48.9023 82.5432 48.8554 82.616 48.8038C82.6015 48.8272 82.6015 48.8366 82.6209 48.8272C82.6403 48.8179 82.6646 48.8038 82.6889 48.785C82.7132 48.7663 82.7375 48.7475 82.7569 48.7288C82.7763 48.71 82.7812 48.7053 82.7763 48.71C82.7617 48.6256 82.7617 48.5224 82.7812 48.4099C82.8006 48.2974 82.8346 48.2083 82.8735 48.1473C82.8492 48.1239 82.8395 48.091 82.8395 48.0535C82.8395 48.016 82.8395 47.9738 82.8346 47.9363C82.8346 47.8988 82.8152 47.866 82.7957 47.8425C82.7763 47.8191 82.7375 47.8097 82.6792 47.8191C82.6646 47.7159 82.6452 47.6409 82.6306 47.594C82.616 47.5471 82.582 47.5049 82.5335 47.4627C82.5237 47.3595 82.4995 47.3079 82.4509 47.3033C82.4023 47.3033 82.3392 47.2798 82.2566 47.2376C82.2663 47.2282 82.2566 47.2282 82.2226 47.2282C82.1886 47.2282 82.1497 47.2282 82.0963 47.2142C82.0429 47.2048 81.9895 47.1954 81.9409 47.1813C81.8875 47.1673 81.8437 47.1438 81.8146 47.111C81.7757 47.1579 81.7175 47.2001 81.6446 47.2423C81.5717 47.2798 81.5037 47.2704 81.4357 47.2048C81.3872 47.2376 81.3435 47.2564 81.2997 47.2657C81.256 47.2751 81.222 47.2798 81.1929 47.2845C81.1637 47.2892 81.1249 47.2939 81.0909 47.3079C81.052 47.3173 81.018 47.3408 80.9743 47.3736C80.984 47.397 80.9743 47.4205 80.9549 47.4486C80.9355 47.4768 80.9063 47.5049 80.8772 47.5377C80.8432 47.5705 80.8092 47.6034 80.7752 47.6362C80.7363 47.6737 80.712 47.7112 80.6975 47.7581C80.712 47.7722 80.7023 47.8238 80.6683 47.9035C80.6343 47.9879 80.6295 48.0957 80.6635 48.227L80.7363 48.5787L80.6975 48.9069L80.8092 48.9163H80.7946Z" fill="#AD7252"/>
<path d="M85.2101 51.7309L85.3315 51.3558L85.2684 51.1307L85.3315 50.6383L85.3801 50.3195L85.3655 49.8599L85.3413 49.5645L85.2441 49.0018L85.1858 48.6032L85.3218 48.3313L85.1761 47.9092C85.2004 47.8483 85.215 47.7826 85.2198 47.717C85.2198 47.6513 85.1955 47.5857 85.1421 47.5247C85.2053 47.445 85.2393 47.3794 85.2393 47.3184C85.2393 47.2575 85.2393 47.2387 85.2247 47.2528C85.2587 47.1355 85.2587 47.0558 85.2295 47.0136C85.2004 46.9714 85.1421 46.9011 85.0547 46.8073C85.1033 46.7932 85.1373 46.7557 85.1567 46.6948C85.1761 46.6385 85.1761 46.6244 85.1615 46.6666C85.1858 46.6103 85.2004 46.5728 85.2101 46.5494C85.2198 46.5259 85.2247 46.5072 85.2247 46.4931V46.4462C85.2247 46.4462 85.2247 46.404 85.2393 46.3618C85.2733 46.3478 85.3121 46.3243 85.3558 46.3056C85.3995 46.2821 85.4433 46.2633 85.4918 46.2446C85.5355 46.2305 85.5841 46.2211 85.6327 46.2258C85.6813 46.2258 85.7298 46.254 85.7784 46.3009C85.9193 46.2634 86.031 46.2774 86.1184 46.3478C86.2058 46.4181 86.2593 46.5025 86.2787 46.5963C86.303 46.5588 86.3273 46.5259 86.3564 46.5072C86.3855 46.4884 86.4195 46.4697 86.4584 46.4509C86.4973 46.4322 86.5458 46.4087 86.6041 46.3806C86.6624 46.3524 86.7255 46.3102 86.7984 46.2446C86.847 46.2305 86.8907 46.2211 86.9247 46.2211C86.9587 46.2211 86.9975 46.2258 87.0315 46.2399C87.0704 46.2493 87.1093 46.268 87.1578 46.2868C87.2064 46.3056 87.2695 46.3243 87.3521 46.3384C87.3618 46.254 87.4201 46.2071 87.527 46.1977C87.6387 46.1883 87.7213 46.2071 87.7893 46.2446C87.8281 46.2305 87.8621 46.2165 87.8815 46.2071C87.901 46.1977 87.9204 46.1977 87.9398 46.1977C87.9593 46.1977 87.9835 46.1977 88.0127 46.2024C88.0418 46.2071 88.0855 46.2118 88.1535 46.2211C88.1341 46.2446 88.1438 46.254 88.173 46.2493C88.2021 46.2493 88.2361 46.2446 88.275 46.2446C88.3138 46.2446 88.3575 46.2446 88.3964 46.2587C88.4353 46.2727 88.4644 46.2915 88.4838 46.329C88.5081 46.3665 88.5275 46.4368 88.5421 46.5306C88.5567 46.6244 88.5713 46.7229 88.5761 46.826C88.5664 46.8729 88.5324 46.9198 88.4693 46.9667C88.4061 47.0136 88.3284 47.0511 88.2361 47.084C88.2361 47.1449 88.2215 47.1918 88.1924 47.2152C88.1633 47.2387 88.1341 47.2528 88.105 47.2528C88.0758 47.2528 88.0467 47.2528 88.0175 47.2481C87.9884 47.2434 87.969 47.2481 87.9641 47.2528C87.9398 47.2903 87.9155 47.3184 87.8864 47.3278C87.8573 47.3372 87.8281 47.3512 87.7893 47.3559C87.7553 47.3653 87.7115 47.3653 87.663 47.3653C87.6144 47.3653 87.5513 47.3747 87.4687 47.3887C87.357 47.4122 87.2695 47.4403 87.2064 47.4732C87.1481 47.506 87.0607 47.5529 86.9441 47.6138C86.9053 47.581 86.8713 47.5716 86.847 47.5857C86.8227 47.5998 86.8033 47.6138 86.7935 47.6373C86.7838 47.6607 86.7693 47.6842 86.7547 47.7029C86.745 47.7217 86.7353 47.7264 86.7255 47.7076C86.6138 47.7451 86.5313 47.8014 86.4875 47.8764C86.4438 47.9514 86.4001 48.0781 86.3613 48.2562L86.3855 48.4907L86.371 49.0675L86.4827 49.3488L86.5167 49.8881L86.3613 50.2866L86.337 50.5211L86.5313 51.0979L86.337 51.3792L86.371 51.8481C86.3613 51.9044 86.3613 51.9513 86.371 51.9935C86.3807 52.0357 86.3855 52.0732 86.3953 52.1107C86.405 52.1482 86.405 52.1811 86.3953 52.2092C86.3855 52.242 86.3661 52.2702 86.337 52.303C86.2738 52.2889 86.1961 52.303 86.1038 52.3593C86.0164 52.4155 85.9435 52.439 85.8853 52.439C85.8027 52.4155 85.7444 52.3968 85.6958 52.3874C85.6473 52.378 85.6181 52.3639 85.5938 52.3593C85.5695 52.3499 85.5453 52.3405 85.5258 52.3311C85.5064 52.3171 85.4773 52.3077 85.4481 52.2889C85.4384 52.2186 85.4093 52.1342 85.351 52.0404C85.2927 51.9466 85.2635 51.8669 85.2538 51.8059L85.2053 51.7215L85.2101 51.7309Z" fill="#AD7252"/>
<path d="M88.7841 53.469C88.7987 53.4127 88.8278 53.3471 88.8618 53.2674C88.8958 53.1877 88.9104 53.1079 88.891 53.0189C88.9056 53.0282 88.9493 53.0048 89.027 52.9532C89.1047 52.9016 89.1581 52.8876 89.197 52.911C89.2698 52.9438 89.3281 52.9579 89.367 52.9626C89.4058 52.9626 89.4398 52.9626 89.469 52.9485C89.4981 52.9344 89.5224 52.9204 89.5467 52.9016C89.571 52.8829 89.6001 52.8641 89.6341 52.85L89.7216 52.8876C89.7847 52.8313 89.9061 52.7656 90.0761 52.6859C90.1004 52.6484 90.1344 52.6062 90.1733 52.5687C90.2121 52.5312 90.251 52.4843 90.2898 52.4327C90.3287 52.3811 90.353 52.3249 90.3676 52.2639C90.3821 52.2029 90.3821 52.1326 90.3578 52.0529L90.6736 51.4996L90.5764 51.0869L90.4938 50.8149L90.1296 50.4633L90.0421 50.1116L89.9353 49.7599L89.8381 49.3848L89.5224 49.0331L89.435 48.7048L89.401 48.4235L89.1338 47.8702L89.1581 47.5044L88.7938 47.2699L88.6967 46.9042L88.8327 46.8479L88.5898 46.7166C88.6481 46.6697 88.687 46.6275 88.7064 46.5853C88.7258 46.5478 88.7404 46.5103 88.7453 46.4775C88.7453 46.4447 88.7501 46.4118 88.7501 46.3696C88.7501 46.3274 88.7647 46.2852 88.789 46.2383C89.0173 46.2243 89.1678 46.1774 89.2504 46.0977C89.3573 46.1211 89.4398 46.1445 89.4981 46.168C89.5564 46.1914 89.6147 46.2196 89.6633 46.2571C89.7118 46.2899 89.7556 46.3368 89.7896 46.3884C89.8284 46.44 89.8721 46.5056 89.9304 46.5806V46.8854L90.0761 47.3309L90.319 47.706L90.4404 47.9874L90.5958 48.386L90.7561 48.7986L90.8921 49.1644L91.2467 49.4363L91.2613 49.788L91.4313 49.5395L91.6013 49.1409L91.6158 48.869L91.8247 48.3625L91.9704 47.9874L92.0918 47.6826L92.2861 47.2465L92.4464 46.8807L92.5678 46.6463C92.5096 46.4353 92.5436 46.304 92.665 46.2524C92.7864 46.2008 92.9516 46.2055 93.1653 46.2712C93.2041 46.2477 93.2576 46.2243 93.3158 46.2008C93.379 46.1774 93.4421 46.1868 93.5053 46.2383C93.5441 46.2758 93.5733 46.3462 93.583 46.44C93.5927 46.5337 93.6073 46.6416 93.6267 46.7588C93.6607 46.7588 93.6753 46.7682 93.6753 46.7823C93.6753 46.7963 93.6656 46.8198 93.6461 46.8432C93.6267 46.8667 93.6024 46.8901 93.5733 46.9089C93.5441 46.9276 93.5247 46.9417 93.5198 46.9511L93.6073 47.2465L93.2916 47.6216L93.3304 47.917L93.0001 48.4094L93.0341 48.7376L92.7184 49.1034L92.7039 49.4316L92.5193 49.7505L92.3007 50.1866L92.2521 50.4679L92.155 50.9134C92.1696 50.9838 92.1598 51.0353 92.1258 51.0729C92.087 51.1104 91.9996 51.176 91.8636 51.2792C91.8878 51.2932 91.9024 51.3167 91.9024 51.3495C91.9024 51.3823 91.9024 51.4199 91.8878 51.4621C91.8781 51.5043 91.8684 51.5465 91.8636 51.5933C91.8538 51.6356 91.8636 51.6731 91.8781 51.7059C91.8441 51.7668 91.8101 51.8231 91.7761 51.8747C91.7373 51.9263 91.6887 51.9919 91.6256 52.067C91.6013 52.1232 91.5867 52.1607 91.577 52.1889C91.5673 52.217 91.5673 52.2451 91.5721 52.2686C91.5721 52.2967 91.5867 52.3295 91.6013 52.3624C91.6158 52.3952 91.6401 52.4468 91.6741 52.5077C91.6401 52.4843 91.5721 52.503 91.475 52.5593C91.373 52.6156 91.3098 52.7234 91.2856 52.8688C91.2661 52.8922 91.2613 52.9157 91.2613 52.9344C91.2613 52.9532 91.2613 52.972 91.2467 52.9954C91.237 53.0142 91.2224 53.0329 91.203 53.047C91.1836 53.0611 91.1447 53.0704 91.0864 53.0704C91.0718 53.1267 91.0524 53.1877 91.033 53.2533C91.0136 53.319 90.931 53.3565 90.795 53.3659C90.7756 53.3799 90.7707 53.4034 90.7658 53.4315C90.7658 53.4596 90.7561 53.4878 90.7513 53.5159C90.7513 53.544 90.7367 53.5628 90.727 53.5722C90.7124 53.5862 90.693 53.5815 90.659 53.5675C90.5618 53.605 90.4744 53.666 90.3967 53.7457C90.319 53.8254 90.2753 53.8723 90.2704 53.8863C90.2364 53.877 90.2073 53.8863 90.1733 53.9004C90.1393 53.9145 90.1101 53.9285 90.0761 53.9332C90.0421 53.9379 90.0081 53.9426 89.9741 53.9379C89.9401 53.9332 89.8964 53.9145 89.8478 53.8723C89.7167 53.9286 89.6244 53.9661 89.5758 53.9848C89.5224 54.0036 89.4593 54.0083 89.3864 53.9895C89.3378 53.9989 89.2796 53.9895 89.2116 53.9614C89.1436 53.9332 89.0513 53.9004 88.9396 53.8629C88.8473 53.8301 88.7841 53.7785 88.7453 53.6988C88.7064 53.6191 88.7113 53.544 88.7696 53.4737L88.8181 53.4643L88.7841 53.469Z" fill="#AD7252"/>
</svg>
