<svg width="15" height="25" viewBox="0 0 15 25" fill="none" xmlns="http://www.w3.org/2000/svg">
<g clip-path="url(#clip0_1316_425)">
<path d="M-0.000291824 2.53516C-0.000291824 3.1854 0.244052 3.83338 0.737265 4.32903L1.92957 5.52721L2.19654 5.79552L3.9522 7.55981L4.21916 7.82812L5.92505 9.54014L6.18975 9.80615L7.91374 11.5409L8.17844 11.8046L8.90242 12.5345L9.76668 13.4007L10.0314 13.6667L10.4047 14.0419C10.8029 14.4443 11.3051 14.683 11.8232 14.7603C11.9386 14.7762 12.0563 14.7853 12.1717 14.7853C12.8232 14.7899 13.4748 14.5421 13.9726 14.0419C14.9228 13.0892 14.9567 11.5705 14.0834 10.5746L14.0812 10.5724C14.045 10.5314 14.0088 10.4928 13.9726 10.4564L13.7508 10.2336L13.4861 9.9676L11.8753 8.34879L11.6105 8.08506L10.0223 6.48672L9.75987 6.22298L8.03362 4.49047L7.76892 4.22446L6.0653 2.51244L5.79833 2.24416L4.30512 0.743582C4.21914 0.657185 4.12864 0.577609 4.03362 0.507127C3.9386 0.434372 3.84131 0.370711 3.7395 0.316145C2.78023 -0.218151 1.55172 -0.0749141 0.737242 0.743582C0.24403 1.23923 -0.000291824 1.88718 -0.000291824 2.53516Z" fill="#7F523B"/>
<path d="M0.067874 22.4641C0.067874 23.112 0.312218 23.7623 0.80543 24.2579L0.816743 24.2693C0.902694 24.3557 0.995476 24.4353 1.0905 24.5058C1.73077 24.9809 2.54525 25.1151 3.28054 24.9036C3.42082 24.865 3.55656 24.8127 3.69005 24.749C3.93665 24.6285 4.16968 24.4648 4.37557 24.2579L6.87104 21.7502L7.41855 21.1999L10.7534 17.8486L14.2602 14.3246C15.2466 13.3333 15.2466 11.7281 14.2602 10.7368C14.2036 10.68 14.1448 10.6254 14.0837 10.5754L14.0814 10.5731C13.9661 10.4776 13.8462 10.3958 13.7195 10.323C13.6199 10.2662 13.5181 10.2184 13.414 10.1775C12.69 9.88649 11.8597 9.9456 11.181 10.3549C11.0068 10.4594 10.8416 10.5868 10.6923 10.7368L3.28507 18.1806L2.73982 18.7285L0.80543 20.6724C0.312218 21.1658 0.067874 21.8161 0.067874 22.4641Z" fill="#7F523B"/>
<path d="M1.92913 5.5275L2.1961 5.7958L4.0332 0.507389C3.93818 0.434633 3.8409 0.370973 3.73909 0.316406L1.92913 5.5275Z" fill="#FFE7CA"/>
<path d="M3.95328 7.56177L4.22025 7.83005L6.06641 2.51438L5.79944 2.24609L3.95328 7.56177Z" fill="#FFE7CA"/>
<path d="M9.76099 6.22266L7.91484 11.5406L8.17955 11.8043L10.0234 6.48639L9.76099 6.22266Z" fill="#FFE7CA"/>
<path d="M3.28017 24.904C3.42044 24.8653 3.55619 24.813 3.68967 24.7493L7.40234 14.043L6.8571 14.5909L3.28017 24.904Z" fill="#FFE7CA"/>
<path d="M7.7685 4.22266L5.92461 9.53833L6.18931 9.80434L8.0332 4.48867L7.7685 4.22266Z" fill="#FFE7CA"/>
<path d="M0.816831 24.2684C0.902781 24.3548 0.995564 24.4344 1.09059 24.5048L3.28516 18.1797L2.73991 18.7276L0.816831 24.2684Z" fill="#FFE7CA"/>
<path d="M6.87048 21.7503L7.41799 21.2001L10.0311 13.6676L11.1804 10.355L11.875 8.34968L11.6103 8.08594L10.6917 10.737L9.7664 13.4016L6.87048 21.7503Z" fill="#FFE7CA"/>
<path d="M10.7542 17.849L11.2995 17.3011L12.1728 14.7865L13.7203 10.3234L13.752 10.2348L13.4872 9.96875L13.4148 10.1779L11.8244 14.7615L10.7542 17.849Z" fill="#FFE7CA"/>
</g>
<defs>
<clipPath id="clip0_1316_425">
<rect width="15" height="25" fill="white" transform="matrix(-1 0 0 1 15 0)"/>
</clipPath>
</defs>
</svg>
