<svg width="15" height="25" viewBox="0 0 15 25" fill="none" xmlns="http://www.w3.org/2000/svg">
<g clip-path="url(#clip0_1316_414)">
<path d="M15.0003 2.53516C15.0003 3.1854 14.7559 3.83338 14.2627 4.32903L13.0704 5.52721L12.8035 5.79552L11.0478 7.55981L10.7808 7.82812L9.07495 9.54014L8.81025 9.80615L7.08626 11.5409L6.82156 11.8046L6.09758 12.5345L5.23332 13.4007L4.96862 13.6667L4.59531 14.0419C4.19712 14.4443 3.69486 14.683 3.17676 14.7603C3.06138 14.7762 2.94373 14.7853 2.82835 14.7853C2.17676 14.7899 1.52518 14.5421 1.02744 14.0419C0.0772144 13.0892 0.0432778 11.5705 0.916581 10.5746L0.918843 10.5724C0.955042 10.5314 0.991219 10.4928 1.02744 10.4564L1.24916 10.2336L1.51387 9.9676L3.12475 8.34879L3.38945 8.08506L4.97769 6.48672L5.24013 6.22298L6.96638 4.49047L7.23108 4.22446L8.9347 2.51244L9.20167 2.24416L10.6949 0.743582C10.7809 0.657185 10.8714 0.577609 10.9664 0.507127C11.0614 0.434372 11.1587 0.370711 11.2605 0.316145C12.2198 -0.218151 13.4483 -0.0749141 14.2628 0.743582C14.756 1.23923 15.0003 1.88718 15.0003 2.53516Z" fill="#7F523B"/>
<path d="M14.9321 22.4641C14.9321 23.112 14.6878 23.7623 14.1946 24.2579L14.1833 24.2693C14.0973 24.3557 14.0045 24.4353 13.9095 24.5058C13.2692 24.9809 12.4548 25.1151 11.7195 24.9036C11.5792 24.865 11.4434 24.8127 11.31 24.749C11.0633 24.6285 10.8303 24.4648 10.6244 24.2579L8.12896 21.7502L7.58145 21.1999L4.24661 17.8486L0.739819 14.3246C-0.246606 13.3333 -0.246606 11.7281 0.739819 10.7368C0.79638 10.68 0.855204 10.6254 0.91629 10.5754L0.918552 10.5731C1.03391 10.4776 1.15385 10.3958 1.28054 10.323C1.38009 10.2662 1.4819 10.2184 1.58597 10.1775C2.30995 9.88649 3.14027 9.9456 3.819 10.3549C3.99321 10.4594 4.15837 10.5868 4.30769 10.7368L11.7149 18.1806L12.2602 18.7285L14.1946 20.6724C14.6878 21.1658 14.9321 21.8161 14.9321 22.4641Z" fill="#7F523B"/>
<path d="M13.0709 5.5275L12.8039 5.7958L10.9668 0.507389C11.0618 0.434633 11.1591 0.370973 11.2609 0.316406L13.0709 5.5275Z" fill="#FFE7CA"/>
<path d="M11.0467 7.56177L10.7797 7.83005L8.93359 2.51438L9.20056 2.24609L11.0467 7.56177Z" fill="#FFE7CA"/>
<path d="M5.23901 6.22266L7.08516 11.5406L6.82045 11.8043L4.97656 6.48639L5.23901 6.22266Z" fill="#FFE7CA"/>
<path d="M11.7198 24.904C11.5796 24.8653 11.4438 24.813 11.3103 24.7493L7.59766 14.043L8.1429 14.5909L11.7198 24.904Z" fill="#FFE7CA"/>
<path d="M7.2315 4.22266L9.07539 9.53833L8.81069 9.80434L6.9668 4.48867L7.2315 4.22266Z" fill="#FFE7CA"/>
<path d="M14.1832 24.2684C14.0972 24.3548 14.0044 24.4344 13.9094 24.5048L11.7148 18.1797L12.2601 18.7276L14.1832 24.2684Z" fill="#FFE7CA"/>
<path d="M8.12952 21.7503L7.58201 21.2001L4.96889 13.6676L3.81957 10.355L3.125 8.34968L3.38971 8.08594L4.30826 10.737L5.2336 13.4016L8.12952 21.7503Z" fill="#FFE7CA"/>
<path d="M4.24578 17.849L3.70054 17.3011L2.82723 14.7865L1.27972 10.3234L1.24805 10.2348L1.51275 9.96875L1.58515 10.1779L3.17565 14.7615L4.24578 17.849Z" fill="#FFE7CA"/>
</g>
<defs>
<clipPath id="clip0_1316_414">
<rect width="15" height="25" fill="white"/>
</clipPath>
</defs>
</svg>
